<?xml version="1.0" standalone="no"?>
<!DOCTYPE svg PUBLIC "-//W3C//DTD SVG 1.1//EN" "http://www.w3.org/Graphics/SVG/1.1/DTD/svg11.dtd" >
<svg>
<metadata>
Created by FontForge 20110222 at Thu Jul 31 11:34:55 2014
 By Orthosie Webhosting
Copyright (c) 2013 by loyalkaspar. All rights reserved.
</metadata>
<defs>
<font id="CarpeDiemLight" horiz-adv-x="260" >
  <font-face 
    font-family="Carpe Diem Light"
    font-weight="400"
    font-stretch="normal"
    units-per-em="1000"
    panose-1="2 0 8 3 3 0 0 2 0 4"
    ascent="800"
    descent="-200"
    x-height="506"
    cap-height="705"
    bbox="-92 -223 1143 1002"
    underline-thickness="80"
    underline-position="-60"
    unicode-range="U+0020-FB02"
  />
<missing-glyph 
 />
    <glyph glyph-name=".notdef" 
 />
    <glyph glyph-name="lslash" unicode="&#x142;" horiz-adv-x="300" 
d="M200 730v-274l85 50v-114l-85 -50v-342h-100v291l-85 -49v114l85 49v325h100z" />
    <glyph glyph-name="Thorn" unicode="&#xde;" horiz-adv-x="568" 
d="M294 245q59 0 90 31.5t31 88.5t-31 88.5t-90 31.5h-104v-240h104zM190 705v-120h111q52 0 93.5 -17t70 -47t43.5 -70t15 -86t-15 -86t-43.5 -70t-70 -47t-93.5 -17h-111v-145h-105v705h105z" />
    <glyph glyph-name="thorn" unicode="&#xfe;" horiz-adv-x="602" 
d="M328 -13q-45 0 -82 17.5t-66 47.5v-262h-100v940h100v-278q28 32 67 49.5t81 17.5q48 0 89 -19t71 -53.5t47 -83.5t17 -110t-17 -110t-47 -83.5t-71 -53.5t-89 -19zM314 87q59 0 96 42t37 124t-37 124t-96 42q-29 0 -54.5 -11.5t-44.5 -33t-29.5 -52.5t-10.5 -69
t10.5 -69t29.5 -52.5t44.5 -33t54.5 -11.5z" />
    <glyph glyph-name="onehalf" unicode="&#xbd;" horiz-adv-x="810" 
d="M511 57q0 63 26 100t75 62q41 20 58.5 37.5t17.5 46.5q0 24 -16 38.5t-45 14.5q-32 0 -52 -8.5t-34 -8.5q-11 0 -17.5 10t-13.5 34q29 14 59 22.5t62 8.5q58 0 87.5 -32t29.5 -79q0 -48 -25.5 -76t-74.5 -53q-23 -11 -38 -22.5t-23.5 -25t-12 -30t-3.5 -38.5h150
q11 0 20 -11.5t9 -36.5v-10h-239v57zM535 705h67l-412 -705h-67zM139 647h-18q-11 0 -20.5 11t-9.5 37v10h105v-407h-57v349z" />
    <glyph glyph-name="onequarter" unicode="&#xbc;" horiz-adv-x="759" 
d="M614 99h-131q-15 0 -26 11.5t-17 40.5l178 256h53v-250h54v-6q0 -26 -9.5 -39t-20.5 -13h-24v-99h-57v99zM617 314l-102 -157h99zM535 705h67l-412 -705h-67zM139 647h-18q-11 0 -20.5 11t-9.5 37v10h105v-407h-57v349z" />
    <glyph glyph-name="onesuperior" unicode="&#xb9;" horiz-adv-x="323" 
d="M139 647h-18q-11 0 -20.5 11t-9.5 37v10h105v-407h-57v349z" />
    <glyph glyph-name="threequarters" unicode="&#xbe;" horiz-adv-x="834" 
d="M160 290q-32 0 -62.5 9.5t-56.5 26.5l4 10q8 17 15 24.5t18 7.5q6 0 13.5 -3l17.5 -7t22.5 -7t28.5 -3q37 0 57 20t20 56q0 28 -18.5 48t-57.5 20q-11 0 -23 -1t-25 -4l-18 42l106 118h-122q-15 0 -22 14t-7 37v7h232v-50l-100 -112q51 -2 83 -33t32 -86q0 -60 -35 -97
t-102 -37zM610 705h67l-412 -705h-67zM689 99h-131q-15 0 -26 11.5t-17 40.5l178 256h53v-250h54v-6q0 -26 -9.5 -39t-20.5 -13h-24v-99h-57v99zM692 314l-102 -157h99z" />
    <glyph glyph-name="threesuperior" unicode="&#xb3;" horiz-adv-x="353" 
d="M160 290q-32 0 -62.5 9.5t-56.5 26.5l4 10q8 17 15 24.5t18 7.5q6 0 13.5 -3l17.5 -7t22.5 -7t28.5 -3q37 0 57 20t20 56q0 28 -18.5 48t-57.5 20q-11 0 -23 -1t-25 -4l-18 42l106 118h-122q-15 0 -22 14t-7 37v7h232v-50l-100 -112q51 -2 83 -33t32 -86q0 -60 -35 -97
t-102 -37z" />
    <glyph glyph-name="twosuperior" unicode="&#xb2;" horiz-adv-x="356" 
d="M57 355q0 63 25.5 100t75.5 62q41 20 58.5 37.5t17.5 46.5q0 23 -16 38t-45 15q-32 0 -52 -9t-34 -9q-11 0 -17.5 10.5t-13.5 33.5q29 15 59 23.5t62 8.5q57 0 87 -32t30 -79q0 -48 -25.5 -76.5t-75.5 -52.5q-23 -11 -37.5 -22.5t-23 -25t-12 -30t-3.5 -38.5h150
q11 0 20 -11.5t9 -36.5v-10h-239v57z" />
    <glyph glyph-name="exclam" unicode="!" horiz-adv-x="290" 
d="M70 62q0 31 22 53t53 22t53 -22t22 -53t-22 -53t-53 -22t-53 22t-22 53zM201 705l-10 -443h-92l-10 443h112z" />
    <glyph glyph-name="quotedbl" unicode="&#x22;" horiz-adv-x="454" 
d="M187 705l-15 -240h-80l-15 240h110zM377 705l-15 -240h-80l-15 240h110z" />
    <glyph glyph-name="numbersign" unicode="#" horiz-adv-x="681" 
d="M161 160h-107v95h125l35 190h-108v95h125l31 165h81l-31 -165h120l31 165h81l-31 -165h123v-9q0 -45 -16 -65.5t-36 -20.5h-88l-35 -190h123v-9q0 -45 -16 -65.5t-36 -20.5h-89l-29 -160h-81l29 160h-120l-29 -160h-81zM380 255l35 190h-120l-35 -190h120z" />
    <glyph glyph-name="dollar" unicode="$" horiz-adv-x="519" 
d="M41 136q11 36 25 48.5t28 12.5q18 0 46 -8.5t70 -13.5l10 133q-36 7 -66.5 18t-53.5 29t-36 43.5t-13 61.5q0 35 14 64t39.5 50t60.5 32.5t77 12.5l6 86h71l-7 -91q40 -5 77 -15t66 -23l-4 -12q-11 -31 -24.5 -46t-33.5 -15q-14 0 -36.5 5.5t-51.5 10.5l-9 -130
q36 -7 67 -17.5t54.5 -28t36.5 -44t13 -63.5q0 -71 -50.5 -113.5t-142.5 -45.5l-5 -77h-71l5 79q-45 5 -89 14.5t-79 23.5zM366 234q0 26 -19 38t-57 21l-9 -121q85 6 85 62zM152 463q0 -28 18 -40.5t56 -20.5l9 122q-38 -2 -60.5 -18t-22.5 -43z" />
    <glyph glyph-name="percent" unicode="%" horiz-adv-x="823" 
d="M616 705h98l-507 -705h-98zM50 547q0 39 12.5 70.5t34.5 54t51.5 34.5t62.5 12t62.5 -12t51.5 -34.5t34.5 -54t12.5 -70.5t-12.5 -70.5t-34.5 -54t-51.5 -34.5t-62.5 -12t-62.5 12t-51.5 34.5t-34.5 54t-12.5 70.5zM131 547q0 -40 22.5 -65t57.5 -25t57.5 25t22.5 65
t-22.5 65t-57.5 25t-57.5 -25t-22.5 -65zM451 158q0 39 12.5 70.5t34.5 54t51.5 34.5t62.5 12t62.5 -12t51.5 -34.5t34.5 -54t12.5 -70.5t-12.5 -70.5t-34.5 -54t-51.5 -34.5t-62.5 -12t-62.5 12t-51.5 34.5t-34.5 54t-12.5 70.5zM532 158q0 -40 22.5 -65t57.5 -25t57.5 25
t22.5 65t-22.5 65t-57.5 25t-57.5 -25t-22.5 -65z" />
    <glyph glyph-name="ampersand" unicode="&#x26;" horiz-adv-x="639" 
d="M425 57q-40 -32 -82.5 -51t-93.5 -19q-44 0 -79 15t-59.5 40.5t-37.5 60.5t-13 74q0 65 28 110t85 82q-28 36 -46.5 77t-18.5 90q0 40 13.5 73.5t37.5 57.5t56.5 37.5t69.5 13.5q41 0 72.5 -14.5t52.5 -38.5t32 -56t11 -67q0 -59 -34 -105t-103 -88l120 -147
q14 17 28.5 35t29.5 38q39 51 98 2l17 -14q-30 -37 -57.5 -71.5t-54.5 -64.5l75 -91l-90 -49zM256 87q29 0 56 11.5t53 32.5l-134 165q-34 -25 -51 -52.5t-17 -62.5q0 -43 24 -68.5t69 -25.5zM206 535q0 -33 14 -59t39 -58q51 29 73.5 57.5t22.5 64.5q0 34 -19 56t-54 22
t-55.5 -24t-20.5 -59z" />
    <glyph glyph-name="quotesingle" unicode="'" horiz-adv-x="264" 
d="M187 705l-15 -240h-80l-15 240h110z" />
    <glyph glyph-name="parenleft" unicode="(" horiz-adv-x="370" 
d="M60 270q0 83 19.5 153.5t51 129t71 105t80.5 82.5l63 -66q-40 -35 -75 -77.5t-60.5 -92.5t-40 -108.5t-14.5 -125.5q0 -68 14.5 -126t40 -108t60.5 -92.5t75 -77.5l-63 -66q-41 36 -80.5 82.5t-71 105t-51 129t-19.5 153.5z" />
    <glyph glyph-name="parenright" unicode=")" horiz-adv-x="370" 
d="M310 270q0 -83 -19.5 -153.5t-51 -129t-71.5 -105t-80 -82.5l-63 66q40 35 75 77.5t60.5 92.5t40 108t14.5 126q0 67 -14.5 125.5t-40 108.5t-60.5 92.5t-75 77.5l63 66q40 -36 80 -82.5t71.5 -105t51 -129t19.5 -153.5z" />
    <glyph glyph-name="asterisk" unicode="*" horiz-adv-x="450" 
d="M198 487l-104 -69l-34 58l114 57l-114 57l34 58l104 -70l-7 127h68l-8 -126l105 69l34 -58l-114 -57l114 -57l-34 -58l-105 69l8 -126h-68z" />
    <glyph glyph-name="plus" unicode="+" horiz-adv-x="623" 
d="M260 279h-170v95h170v160h100v-160h183v-9q0 -45 -16 -65.5t-36 -20.5h-131v-160h-100v160z" />
    <glyph glyph-name="comma" unicode="," horiz-adv-x="290" 
d="M132 -12q-26 5 -44 25.5t-18 48.5q0 31 22 53t53 22q32 0 53.5 -23.5t21.5 -56.5q0 -51 -26 -105.5t-74 -105.5h-57z" />
    <glyph glyph-name="hyphen" unicode="-" horiz-adv-x="394" 
d="M75 379h254v-19q0 -45 -11 -65.5t-31 -20.5h-212v105z" />
    <glyph glyph-name="period" unicode="." horiz-adv-x="290" 
d="M70 62q0 31 22 53t53 22t53 -22t22 -53t-22 -53t-53 -22t-53 22t-22 53z" />
    <glyph glyph-name="slash" unicode="/" horiz-adv-x="435" 
d="M352 730h103l-392 -870h-103z" />
    <glyph glyph-name="zero" unicode="0" horiz-adv-x="612" 
d="M306 -13q-61 0 -107.5 25.5t-78.5 73t-48.5 115t-16.5 152.5t16.5 152.5t48.5 114.5t78.5 72.5t107.5 25.5t107.5 -25.5t78.5 -72.5t48.5 -114.5t16.5 -152.5t-16.5 -152.5t-48.5 -115t-78.5 -73t-107.5 -25.5zM306 82q38 0 65.5 19t45.5 54.5t26.5 85.5t8.5 112
t-8.5 112t-26.5 85t-45.5 54t-65.5 19t-65.5 -19t-45.5 -54t-26.5 -85t-8.5 -112t8.5 -112t26.5 -85.5t45.5 -54.5t65.5 -19z" />
    <glyph glyph-name="one" unicode="1" horiz-adv-x="368" 
d="M143 605h-31q-20 0 -36 19t-16 64v17h183v-705h-100v605z" />
    <glyph glyph-name="two" unicode="2" horiz-adv-x="537" 
d="M62 98q0 55 11.5 98t33.5 76.5t55 59.5t75 47q35 18 60.5 33.5t41.5 32.5t23.5 36t7.5 44q0 42 -27.5 67t-78.5 25q-27 0 -49.5 -4.5t-40.5 -10.5t-32.5 -10.5t-26.5 -4.5q-19 0 -31 17t-24 59q52 26 103 40.5t107 14.5q50 0 88 -15t63.5 -41t38.5 -61.5t13 -75.5
q0 -41 -11 -73.5t-33 -58.5t-54.5 -48.5t-75.5 -43.5q-39 -20 -65 -39.5t-41 -42.5t-21 -52t-6 -67h260q20 0 35.5 -19.5t15.5 -63.5v-17h-415v98z" />
    <glyph glyph-name="three" unicode="3" horiz-adv-x="544" 
d="M252 -13q-57 0 -109.5 16t-97.5 45l7 17q13 31 25.5 44t31.5 13q11 0 24.5 -5.5t30 -12t38 -12t49.5 -5.5q64 0 98.5 34t34.5 97q0 49 -32 83.5t-99 34.5q-20 0 -40 -2t-43 -7l-32 74l184 204h-211q-26 0 -38.5 24t-12.5 65v11h403v-86l-174 -194q44 -2 80.5 -16.5
t63 -41t41.5 -64t15 -85.5q0 -51 -15.5 -93.5t-45.5 -73t-74.5 -47.5t-101.5 -17z" />
    <glyph glyph-name="four" unicode="4" horiz-adv-x="573" 
d="M341 172h-227q-26 0 -44.5 20t-29.5 70l309 443h92v-433h92v-10q0 -45 -16 -67.5t-36 -22.5h-40v-172h-100v172zM347 545l-177 -273h171z" />
    <glyph glyph-name="five" unicode="5" horiz-adv-x="552" 
d="M262 -13q-57 0 -109.5 16t-97.5 45l7 17q13 31 25.5 44t31.5 13q11 0 24.5 -5.5t30 -12t38 -12t49.5 -5.5q64 0 98.5 34t34.5 97q0 54 -31 88t-96 34q-45 0 -91 -8t-92 -22l18 395h367v-11q0 -41 -12.5 -65t-38.5 -24h-223l-8 -182q25 7 52.5 10.5t53.5 3.5
q49 0 87 -16.5t64 -45.5t39.5 -69t13.5 -88q0 -51 -15 -93.5t-45 -73t-74 -47.5t-101 -17z" />
    <glyph glyph-name="six" unicode="6" horiz-adv-x="573" 
d="M291 -13q-60 0 -106.5 24.5t-76.5 75.5q-26 42 -37 101t-11 131q0 100 19 174.5t54 124.5t84 75t109 25q89 0 161 -37l-4 -14q-8 -26 -21.5 -41.5t-32.5 -15.5q-21 0 -43 6.5t-61 6.5q-71 0 -110 -57t-49 -157q28 25 62.5 40.5t76.5 15.5q49 0 89.5 -17.5t69 -49
t44 -74.5t15.5 -95q0 -51 -16 -95.5t-46 -77t-73 -51t-97 -18.5zM293 82q56 0 90.5 38t34.5 106t-32 106t-88 38q-60 0 -95.5 -39t-35.5 -105q0 -68 35 -106t91 -38z" />
    <glyph glyph-name="seven" unicode="7" horiz-adv-x="499" 
d="M340 605h-253q-20 0 -36 21.5t-16 66.5v12h424v-76l-227 -629h-114z" />
    <glyph glyph-name="eight" unicode="8" horiz-adv-x="582" 
d="M291 623q-51 0 -81 -27t-30 -76q0 -50 32.5 -77t78.5 -27t78.5 27t32.5 77q0 49 -30 76t-81 27zM291 326q-57 0 -90.5 -34.5t-33.5 -90.5q0 -54 32 -86.5t92 -32.5t92 32.5t32 86.5q0 56 -33.5 90.5t-90.5 34.5zM291 718q50 0 89.5 -16t67.5 -43t42.5 -63t14.5 -76
q0 -49 -23.5 -85.5t-61.5 -59.5q45 -23 73.5 -66t28.5 -104q0 -103 -61 -160.5t-170 -57.5t-170 57.5t-61 160.5q0 61 28.5 104t73.5 66q-38 23 -61.5 59.5t-23.5 85.5q0 40 14.5 76t42.5 63t67.5 43t89.5 16z" />
    <glyph glyph-name="nine" unicode="9" horiz-adv-x="573" 
d="M267 -13q-51 0 -100 12t-91 32l6 16q9 25 23.5 41.5t33.5 16.5q10 0 22.5 -3.5t27.5 -8t34.5 -8t44.5 -3.5q63 0 98 58t41 156q-28 -25 -62.5 -40.5t-76.5 -15.5q-50 0 -90 17.5t-68.5 49t-44 74.5t-15.5 95q0 51 16 95.5t46 77t73 51t97 18.5q60 0 106.5 -24.5
t76.5 -75.5q26 -42 37 -101t11 -131q0 -201 -62.5 -300t-183.5 -99zM275 335q60 0 95.5 39t35.5 105q0 68 -35 106t-91 38t-90.5 -38t-34.5 -106t32 -106t88 -38z" />
    <glyph glyph-name="colon" unicode=":" horiz-adv-x="290" 
d="M70 62q0 31 22 53t53 22t53 -22t22 -53t-22 -53t-53 -22t-53 22t-22 53zM70 394q0 31 22 53t53 22t53 -22t22 -53t-22 -53t-53 -22t-53 22t-22 53z" />
    <glyph glyph-name="semicolon" unicode=";" horiz-adv-x="290" 
d="M132 -12q-26 5 -44 25.5t-18 48.5q0 31 22 53t53 22q32 0 53.5 -23.5t21.5 -56.5q0 -51 -26 -105.5t-74 -105.5h-57zM70 394q0 31 22 53t53 22t53 -22t22 -53t-22 -53t-53 -22t-53 22t-22 53z" />
    <glyph glyph-name="less" unicode="&#x3c;" horiz-adv-x="572" 
d="M492 82l-422 206v71l422 207v-105l-296 -137l296 -137v-105z" />
    <glyph glyph-name="equal" unicode="=" horiz-adv-x="603" 
d="M100 254h413v-9q0 -45 -16 -65.5t-36 -20.5h-361v95zM100 489h413v-9q0 -45 -16 -65.5t-36 -20.5h-361v95z" />
    <glyph glyph-name="greater" unicode="&#x3e;" horiz-adv-x="572" 
d="M80 187l296 137l-296 137v105l422 -207v-71l-422 -206v105z" />
    <glyph glyph-name="question" unicode="?" horiz-adv-x="466" 
d="M137 422l50 4q62 5 93 29t31 69q0 44 -28.5 69t-85.5 25q-35 0 -60 -4.5t-43 -4.5q-23 0 -34.5 21.5t-19.5 62.5q37 12 77.5 18.5t85.5 6.5q54 0 94.5 -15t66.5 -41t39 -61.5t13 -76.5q0 -75 -43 -122t-133 -61l-3 -101h-93zM191 -13q-31 0 -53 22t-22 53t22 53t53 22
t53 -22t22 -53t-22 -53t-53 -22z" />
    <glyph glyph-name="at" unicode="@" horiz-adv-x="991" 
d="M468 29q-42 0 -77.5 17t-62 48t-41.5 74.5t-15 96.5t15 97t41.5 75t62 48t77.5 17q38 0 74.5 -17t60.5 -48q2 23 14.5 38.5t46.5 15.5h20v-307q0 -40 16.5 -63t50.5 -23q21 0 38.5 9t30 30t19.5 55t7 84q0 166 -88.5 258t-262.5 92q-87 0 -152.5 -25t-109.5 -72
t-66 -113.5t-22 -149.5q0 -166 88.5 -258.5t261.5 -92.5q70 0 131.5 10.5t108.5 24.5l15 -71q-49 -16 -114.5 -27.5t-140.5 -11.5q-103 0 -182 29.5t-133 84.5t-82 134t-28 178t28 179.5t82 137t133 87.5t182 31t182.5 -29.5t133.5 -84t82 -133.5t28 -178q0 -68 -12.5 -116
t-36 -78.5t-56.5 -44.5t-75 -14q-45 0 -78.5 20.5t-52.5 52.5q-29 -29 -64.5 -48t-77.5 -19zM480 116q25 0 47.5 11t38.5 30.5t25.5 47t9.5 60.5t-9.5 61t-25.5 47.5t-38.5 30.5t-47.5 11q-51 0 -83.5 -38t-32.5 -112q0 -73 32.5 -111t83.5 -38z" />
    <glyph glyph-name="A" unicode="A" horiz-adv-x="592" 
d="M240 705h111l221 -705h-112l-42 134h-248l-41 -134h-109zM201 234h187l-92 319z" />
    <glyph glyph-name="B" unicode="B" horiz-adv-x="589" 
d="M85 705h230q46 0 83.5 -14.5t64 -40t41 -60.5t14.5 -76q0 -51 -22 -87.5t-60 -59.5q45 -20 74 -61.5t29 -103.5q0 -43 -14 -80t-41 -64t-66 -42.5t-89 -15.5h-244v705zM303 411q52 0 79.5 25t27.5 73q0 43 -29 69.5t-81 26.5h-110v-194h113zM321 100q53 0 81.5 28
t28.5 79q0 46 -27.5 75t-82.5 29h-131v-211h131z" />
    <glyph glyph-name="C" unicode="C" horiz-adv-x="567" 
d="M331 -13q-69 0 -122 27t-88 75.5t-53 115.5t-18 147t18 147.5t53 116t88 75.5t122 27q62 0 108 -17.5t88 -51.5l-10 -16q-14 -22 -27.5 -33t-31.5 -11q-11 0 -21.5 4.5t-24 10t-32.5 10t-49 4.5q-80 0 -125.5 -68t-45.5 -198t45.5 -197.5t125.5 -67.5q31 0 52.5 5
t36.5 11.5t26 11.5t22 5q18 0 31.5 -11t27.5 -33l10 -16q-45 -37 -94 -55t-112 -18z" />
    <glyph glyph-name="D" unicode="D" horiz-adv-x="630" 
d="M85 705h199q69 0 124 -23.5t93.5 -69t58.5 -111t20 -149.5t-20 -149.5t-58.5 -110.5t-93.5 -68.5t-124 -23.5h-199v705zM277 100q95 0 144 65t49 187t-49 187.5t-144 65.5h-87v-505h87z" />
    <glyph glyph-name="E" unicode="E" horiz-adv-x="531" 
d="M85 705h386v-18q0 -44 -15.5 -63t-35.5 -19h-230v-184h223v-100h-223v-221h240q20 0 35.5 -19.5t15.5 -63.5v-17h-396v705z" />
    <glyph glyph-name="F" unicode="F" horiz-adv-x="502" 
d="M85 705h387v-14q0 -45 -15.5 -65.5t-35.5 -20.5h-231v-201h224v-100h-224v-304h-105v705z" />
    <glyph glyph-name="G" unicode="G" horiz-adv-x="624" 
d="M331 -13q-69 0 -122 27t-88 75.5t-53 115.5t-18 147t18 147.5t53 116t88 75.5t122 27q66 0 118.5 -20.5t98.5 -58.5l-10 -16q-14 -22 -27.5 -33t-31.5 -11q-11 0 -23.5 6t-29 13.5t-39.5 13.5t-56 6q-80 0 -125.5 -68t-45.5 -198t45.5 -197.5t125.5 -67.5q36 0 63.5 7
t49.5 21v171h-132v14q0 45 15.5 65.5t35.5 20.5h186v-327q-40 -32 -91.5 -52t-126.5 -20z" />
    <glyph glyph-name="H" unicode="H" horiz-adv-x="660" 
d="M85 705h105v-297h280v297h105v-705h-105v308h-280v-308h-105v705z" />
    <glyph glyph-name="I" unicode="I" horiz-adv-x="275" 
d="M85 705h105v-705h-105v705z" />
    <glyph glyph-name="J" unicode="J" horiz-adv-x="483" 
d="M42 44q11 29 25.5 44t35.5 15q14 0 37 -8t54 -8q56 0 77.5 35.5t21.5 99.5v483h105v-495q0 -114 -54 -168.5t-149 -54.5q-38 0 -79.5 9.5t-80.5 29.5z" />
    <glyph glyph-name="K" unicode="K" horiz-adv-x="598" 
d="M85 705h105v-312l275 312h91q0 -34 -18.5 -65.5t-50.5 -67.5l-149 -166l180 -267q17 -25 28.5 -55t11.5 -84h-78l-214 324l-76 -85v-239h-105v705z" />
    <glyph glyph-name="L" unicode="L" horiz-adv-x="496" 
d="M85 705h105v-605h225q20 0 35.5 -19.5t15.5 -63.5v-17h-381v705z" />
    <glyph glyph-name="M" unicode="M" horiz-adv-x="746" 
d="M85 705h101l187 -370l187 370h101v-705h-105v479l-142 -281h-82l-142 281v-479h-105v705z" />
    <glyph glyph-name="N" unicode="N" horiz-adv-x="671" 
d="M85 705h98l298 -492v492h105v-705h-92l-304 501v-501h-105v705z" />
    <glyph glyph-name="O" unicode="O" horiz-adv-x="662" 
d="M331 -13q-69 0 -122 27t-88 75.5t-53 115.5t-18 147t18 147.5t53 116t88 75.5t122 27t122 -27t88 -75.5t53 -116t18 -147.5t-18 -147t-53 -115.5t-88 -75.5t-122 -27zM331 87q80 0 125.5 67.5t45.5 197.5t-45.5 198t-125.5 68t-125.5 -68t-45.5 -198t45.5 -197.5
t125.5 -67.5z" />
    <glyph glyph-name="P" unicode="P" horiz-adv-x="568" 
d="M294 365q59 0 90 31.5t31 88.5t-31 88.5t-90 31.5h-104v-240h104zM85 705h216q52 0 93.5 -17t70 -47t43.5 -70t15 -86t-15 -86t-43.5 -70t-70 -47t-93.5 -17h-111v-265h-105v705z" />
    <glyph glyph-name="Q" unicode="Q" horiz-adv-x="662" 
d="M331 -13q-69 0 -122 27t-88 75.5t-53 115.5t-18 147t18 147.5t53 116t88 75.5t122 27t122 -27t88 -75.5t53 -116t18 -147.5q0 -83 -18.5 -151t-56.5 -116h78v-91q-14 -3 -30 -5t-35 -2q-52 0 -91 30q-27 -14 -59 -22t-69 -8zM301 213q29 26 58 28t43 -14l57 -67
q43 69 43 192q0 130 -45.5 198t-125.5 68t-125.5 -68t-45.5 -198t45.5 -197.5t125.5 -67.5q31 0 55 10l-95 107z" />
    <glyph glyph-name="R" unicode="R" horiz-adv-x="598" 
d="M85 705h235q51 0 91.5 -15.5t68.5 -43t43 -66t15 -84.5q0 -73 -36 -125.5t-102 -73.5l97 -158q15 -26 26.5 -57t11.5 -82h-80l-166 286h-99v-286h-105v705zM309 386q59 0 90.5 27.5t31.5 79.5q0 53 -31.5 82.5t-90.5 29.5h-119v-219h119z" />
    <glyph glyph-name="S" unicode="S" horiz-adv-x="544" 
d="M45 61q14 35 29 48.5t34 13.5q10 0 27 -5.5t38 -12.5t46 -12.5t52 -5.5q61 0 93 32t32 77q0 22 -9 39t-27.5 30.5t-46 25t-64.5 22.5q-48 15 -85 33t-62 42.5t-38 56t-13 72.5q0 39 13.5 75t40.5 64t67.5 45t94.5 17q50 0 105 -14.5t106 -40.5q-17 -41 -31.5 -55.5
t-37.5 -14.5q-12 0 -26 4t-31.5 8.5t-37 8.5t-41.5 4q-57 0 -86 -29.5t-29 -71.5q0 -41 34.5 -62.5t110.5 -44.5q55 -17 93.5 -37.5t62.5 -47t34.5 -58.5t10.5 -71q0 -45 -13.5 -83.5t-42 -66t-71.5 -43.5t-101 -16q-53 0 -112.5 14t-123.5 47z" />
    <glyph glyph-name="T" unicode="T" horiz-adv-x="549" 
d="M222 605h-141q-22 0 -36.5 22t-14.5 65v13h489v-13q0 -43 -15 -65t-37 -22h-140v-605h-105v605z" />
    <glyph glyph-name="U" unicode="U" horiz-adv-x="664" 
d="M332 -13q-60 0 -106 18.5t-77.5 51t-47.5 75t-16 90.5v483h105v-476q0 -30 8.5 -56t25.5 -45t44 -30t64 -11t64 11t44 30t25.5 45t8.5 56v476h105v-483q0 -48 -16 -90.5t-47.5 -75t-77.5 -51t-106 -18.5z" />
    <glyph glyph-name="V" unicode="V" horiz-adv-x="592" 
d="M20 705h112l164 -539l165 539h111l-221 -705h-111z" />
    <glyph glyph-name="W" unicode="W" horiz-adv-x="855" 
d="M30 705h109l107 -476l135 476h92l137 -476l107 476h108l-163 -705h-92l-143 503l-141 -503h-92z" />
    <glyph glyph-name="X" unicode="X" horiz-adv-x="558" 
d="M420 0l-142 265l-141 -265h-117l197 366l-184 339h117l129 -243l128 243h117l-184 -340l198 -365h-118z" />
    <glyph glyph-name="Y" unicode="Y" horiz-adv-x="536" 
d="M214 300l-204 405h118l141 -293l141 293h116l-207 -405v-300h-105v300z" />
    <glyph glyph-name="Z" unicode="Z" horiz-adv-x="564" 
d="M50 84l316 521h-262q-20 0 -35 21.5t-15 62.5v16h443v-84l-315 -521h287q20 0 35 -20t15 -61v-19h-469v84z" />
    <glyph glyph-name="bracketleft" unicode="[" horiz-adv-x="473" 
d="M120 730h273v-80h-183v-740h183v-80h-273v900z" />
    <glyph glyph-name="backslash" unicode="\" horiz-adv-x="435" 
d="M475 -140h-103l-392 870h103z" />
    <glyph glyph-name="bracketright" unicode="]" horiz-adv-x="473" 
d="M353 -170h-273v80h183v740h-183v80h273v-900z" />
    <glyph glyph-name="asciicircum" unicode="^" horiz-adv-x="474" 
d="M60 435l144 270h66l144 -270h-87l-90 166l-90 -166h-87z" />
    <glyph glyph-name="underscore" unicode="_" horiz-adv-x="500" 
d="M-3 -76h506v-9q0 -45 -16 -65.5t-36 -20.5h-454v95z" />
    <glyph glyph-name="grave" unicode="`" horiz-adv-x="407" 
d="M307 590h-84l-67 66q-22 21 -36.5 41.5t-19.5 42.5h116z" />
    <glyph glyph-name="a" unicode="a" horiz-adv-x="562" 
d="M387 216q-29 6 -65 9.5t-68 3.5q-48 0 -73.5 -16.5t-25.5 -54.5t25.5 -57t70.5 -19q62 0 99 34t37 100zM473 0q-35 0 -53 15.5t-24 41.5q-28 -32 -68 -51t-89 -19q-41 0 -76 12t-60 34t-39 53.5t-14 70.5q0 75 50.5 118.5t151.5 43.5q31 0 67 -3.5t68 -10.5v24
q0 44 -26.5 69.5t-85.5 25.5q-27 0 -47.5 -4t-37.5 -9.5t-31 -9.5t-27 -4q-17 0 -28.5 14t-21.5 43l-5 15q49 23 99.5 36.5t105.5 13.5q205 0 205 -207v-312h-14z" />
    <glyph glyph-name="b" unicode="b" horiz-adv-x="602" 
d="M80 730h100v-276q29 30 66 47.5t82 17.5q48 0 89 -19t71 -53.5t47 -83.5t17 -110t-17 -110t-47 -83.5t-71 -53.5t-89 -19q-45 0 -86 20t-69 55q-5 -28 -23.5 -45t-55.5 -17h-14v730zM314 87q59 0 96 42t37 124t-37 124t-96 42q-29 0 -54.5 -11.5t-44.5 -33t-29.5 -52.5
t-10.5 -69t10.5 -69t29.5 -52.5t44.5 -33t54.5 -11.5z" />
    <glyph glyph-name="c" unicode="c" horiz-adv-x="491" 
d="M287 -13q-57 0 -101 20.5t-74.5 56.5t-46 84.5t-15.5 104.5t15.5 104.5t46 84.5t74.5 56.5t101 20.5q51 0 92 -15.5t75 -41.5l-8 -15q-11 -20 -23 -32.5t-31 -12.5q-10 0 -20 3.5t-22.5 7.5t-28 7.5t-34.5 3.5q-61 0 -96.5 -44.5t-35.5 -126.5t35.5 -126.5t96.5 -44.5
q19 0 35.5 4t30.5 9t25.5 9t20.5 4q19 0 30 -11.5t23 -31.5l9 -15q-36 -29 -79.5 -46t-94.5 -17z" />
    <glyph glyph-name="d" unicode="d" horiz-adv-x="602" 
d="M288 87q29 0 54.5 11.5t44 33t29.5 52.5t11 69t-11 69t-29.5 52.5t-44 33t-54.5 11.5q-59 0 -96 -42t-37 -124t37 -124t96 -42zM508 0q-37 0 -55.5 17t-23.5 45q-28 -35 -69 -55t-86 -20q-48 0 -89 19t-71 53.5t-47 83.5t-17 110t17 110t47 83.5t71 53.5t89 19
q45 0 82 -17.5t66 -47.5v276h100v-730h-14z" />
    <glyph glyph-name="e" unicode="e" horiz-adv-x="540" 
d="M285 -13q-57 0 -101 21t-73.5 57t-45 84.5t-15.5 103.5t15 103.5t44.5 84.5t73 57t100.5 21q54 0 94 -19t66.5 -50.5t39 -71.5t12.5 -82q0 -43 -13.5 -65.5t-33.5 -22.5h-293q4 -33 16 -56.5t30 -39t40.5 -23t46.5 -7.5q25 0 45 4t35.5 9.5t27.5 9.5t21 4
q16 0 30.5 -12.5t27.5 -40.5l7 -15q-46 -26 -93.5 -40t-103.5 -14zM396 303q-3 53 -30.5 87t-86.5 34q-57 0 -87.5 -34.5t-35.5 -86.5h240z" />
    <glyph glyph-name="f" unicode="f" horiz-adv-x="325" 
d="M100 411h-77v95h77v59q0 35 9.5 64.5t28.5 51.5t47.5 34t66.5 12q14 0 28 -1t29 -3l-16 -90h-23q-26 0 -48 -14t-22 -45v-68h116v-9q0 -45 -16 -65.5t-36 -20.5h-64v-411h-100v411z" />
    <glyph glyph-name="g" unicode="g" horiz-adv-x="602" 
d="M274 -13q-48 0 -89 19t-71 53.5t-47 83.5t-17 110t17 110t47 83.5t71 53.5t89 19q45 0 86 -20t69 -55q5 28 23.5 45t55.5 17h14v-507q0 -106 -58.5 -164t-160.5 -58q-54 0 -110 12t-111 37l8 22q11 32 25 44t31 12q11 0 24.5 -4t31.5 -9.5t42 -9.5t56 -4q62 0 92 33.5
t30 96.5v45q-29 -30 -66 -47.5t-82 -17.5zM288 87q29 0 54.5 11.5t44 33t29.5 52.5t11 69t-11 69t-29.5 52.5t-44 33t-54.5 11.5q-59 0 -96 -42t-37 -124t37 -124t96 -42z" />
    <glyph glyph-name="h" unicode="h" horiz-adv-x="593" 
d="M80 730h100v-275q30 29 69 46.5t84 17.5t79.5 -16t58 -45t35.5 -68.5t12 -85.5v-304h-100v289q0 62 -28.5 96t-81.5 34q-27 0 -50 -10t-40.5 -28.5t-27.5 -45t-10 -58.5v-277h-100v730z" />
    <glyph glyph-name="i" unicode="i" 
d="M80 506h100v-506h-100v506zM130 616q-23 0 -40 17t-17 40t17 40t40 17t40 -17t17 -40t-17 -40t-40 -17z" />
    <glyph glyph-name="j" unicode="j" 
d="M130 616q-23 0 -40 17t-17 40t17 40t40 17t40 -17t17 -40t-17 -40t-40 -17zM9 -204q0 43 8.5 64.5t29.5 28.5q18 6 25.5 21.5t7.5 44.5v551h100v-556q0 -81 -41.5 -127t-129.5 -46v19z" />
    <glyph glyph-name="k" unicode="k" horiz-adv-x="525" 
d="M180 730v-451l215 227h80q0 -34 -18 -66t-51 -67l-81 -83l110 -151q18 -24 29 -54.5t11 -84.5h-73l-150 215l-72 -73v-142h-100v730h100z" />
    <glyph glyph-name="l" unicode="l" 
d="M180 730v-730h-100v730h100z" />
    <glyph glyph-name="m" unicode="m" horiz-adv-x="893" 
d="M80 506h14q36 0 54.5 -16t23.5 -42q29 35 68.5 53t82.5 18q51 0 87 -21t56 -59q38 42 82.5 61t92.5 19q43 0 76 -15t55 -42.5t33 -65t11 -82.5v-314h-100v299q0 120 -100 120q-24 0 -45.5 -10t-37.5 -28t-25.5 -43.5t-9.5 -55.5v-282h-100v299q0 120 -100 120
q-24 0 -45.5 -10t-37.5 -28t-25.5 -43.5t-9.5 -55.5v-282h-100v506z" />
    <glyph glyph-name="n" unicode="n" horiz-adv-x="593" 
d="M80 506h14q36 0 54.5 -16.5t23.5 -42.5q31 33 72 52.5t89 19.5q45 0 79.5 -16t58 -45t35.5 -68.5t12 -85.5v-304h-100v289q0 62 -28.5 96t-81.5 34q-27 0 -50 -10t-40.5 -28.5t-27.5 -45t-10 -58.5v-277h-100v506z" />
    <glyph glyph-name="o" unicode="o" horiz-adv-x="574" 
d="M287 -13q-57 0 -101 20.5t-74.5 56.5t-46 84.5t-15.5 104.5t15.5 104.5t46 84.5t74.5 56.5t101 20.5t101 -20.5t74.5 -56.5t46 -84.5t15.5 -104.5t-15.5 -104.5t-46 -84.5t-74.5 -56.5t-101 -20.5zM287 424q-61 0 -96.5 -44.5t-35.5 -126.5t35.5 -126.5t96.5 -44.5
t96.5 44.5t35.5 126.5t-35.5 126.5t-96.5 44.5z" />
    <glyph glyph-name="p" unicode="p" horiz-adv-x="602" 
d="M314 87q59 0 96 42t37 124t-37 124t-96 42q-29 0 -54.5 -11.5t-44.5 -33t-29.5 -52.5t-10.5 -69t10.5 -69t29.5 -52.5t44.5 -33t54.5 -11.5zM328 -13q-45 0 -82 17.5t-66 47.5v-262h-100v716h14q37 0 55.5 -17t23.5 -45q28 35 69 55t86 20q48 0 89 -19t71 -53.5t47 -83.5
t17 -110t-17 -110t-47 -83.5t-71 -53.5t-89 -19z" />
    <glyph glyph-name="q" unicode="q" horiz-adv-x="602" 
d="M274 -13q-48 0 -89 19t-71 53.5t-47 83.5t-17 110t17 110t47 83.5t71 53.5t89 19q45 0 86 -20t69 -55q5 28 23.5 45t55.5 17h14v-716h-100v262q-29 -30 -66 -47.5t-82 -17.5zM288 87q29 0 54.5 11.5t44 33t29.5 52.5t11 69t-11 69t-29.5 52.5t-44 33t-54.5 11.5
q-59 0 -96 -42t-37 -124t37 -124t96 -42z" />
    <glyph glyph-name="r" unicode="r" horiz-adv-x="358" 
d="M173 439q30 38 68.5 59t86.5 21v-114q-82 0 -115 -33.5t-33 -110.5v-261h-100v506h14q38 0 56.5 -18t22.5 -49z" />
    <glyph glyph-name="s" unicode="s" horiz-adv-x="479" 
d="M51 46q11 33 24 45.5t27 12.5q12 0 25.5 -3.5t31 -7.5t38 -7.5t46.5 -3.5q44 0 63.5 16t19.5 46q0 23 -20 35t-49.5 20t-64 16.5t-64 24t-49.5 43t-20 73.5q0 36 13 66t36.5 51.5t56 33.5t71.5 12q47 0 92 -12t87 -31l-4 -12q-11 -31 -24.5 -44.5t-33.5 -13.5
q-21 0 -47.5 9t-68.5 9q-36 0 -56.5 -15t-20.5 -46q0 -25 20 -37t50 -19.5t64.5 -15t64.5 -22.5t50 -43t20 -76q0 -75 -48.5 -119t-139.5 -44q-50 0 -99.5 10.5t-96.5 29.5z" />
    <glyph glyph-name="t" unicode="t" horiz-adv-x="325" 
d="M100 411h-77v95h77v148h100v-148h106v-9q0 -45 -16 -65.5t-36 -20.5h-54v-411h-100v411z" />
    <glyph glyph-name="u" unicode="u" horiz-adv-x="593" 
d="M499 0q-36 0 -54.5 16.5t-23.5 42.5q-31 -33 -72 -52.5t-89 -19.5q-45 0 -79.5 16t-58 45t-35.5 68t-12 86v304h100v-289q0 -62 28.5 -96t81.5 -34q27 0 50 10t40.5 28.5t27.5 45t10 58.5v277h100v-506h-14z" />
    <glyph glyph-name="v" unicode="v" horiz-adv-x="498" 
d="M130 506l121 -364l118 364h109l-176 -506h-106l-176 506h110z" />
    <glyph glyph-name="w" unicode="w" horiz-adv-x="707" 
d="M396 506l108 -327l76 327h102l-126 -506h-92l-109 330l-114 -330h-93l-123 506h105l75 -327l112 327h79z" />
    <glyph glyph-name="x" unicode="x" horiz-adv-x="487" 
d="M306 259l161 -259h-115l-108 174l-109 -174h-115l161 259l-153 247h114l102 -167l101 167h115z" />
    <glyph glyph-name="y" unicode="y" horiz-adv-x="498" 
d="M267 -103q-20 -57 -51 -88.5t-88 -31.5q-22 0 -46 5t-44 13l5 19q17 64 47 64q8 0 16 -1t17 -1q22 0 32.5 14t16.5 31l26 73l-178 512h110l121 -367l118 367h109z" />
    <glyph glyph-name="z" unicode="z" horiz-adv-x="496" 
d="M50 71l253 340h-195q-20 0 -35.5 19.5t-15.5 63.5v12h380v-68l-245 -343h208q20 0 35.5 -19.5t15.5 -63.5v-12h-401v71z" />
    <glyph glyph-name="braceleft" unicode="{" horiz-adv-x="490" 
 />
    <glyph glyph-name="bar" unicode="|" horiz-adv-x="300" 
d="M100 805h100v-1005h-100v1005z" />
    <glyph glyph-name="braceright" unicode="}" horiz-adv-x="490" 
 />
    <glyph glyph-name="asciitilde" unicode="~" horiz-adv-x="648" 
d="M80 357q40 45 77 68t80 23q29 0 50 -6t40.5 -13t40 -13t48.5 -6q30 0 57 11t56 33l39 -60q-40 -45 -77.5 -68t-79.5 -23q-29 0 -50 6t-40.5 13t-40 13t-48.5 6q-30 0 -57.5 -11t-55.5 -33z" />
    <glyph glyph-name="dagger" unicode="&#x2020;" horiz-adv-x="400" 
d="M345 573q0 -31 -9.5 -47t-24.5 -16h-75v-237h-77v237h-99v73h99v122h77v-122h109v-10z" />
    <glyph glyph-name="degree" unicode="&#xb0;" horiz-adv-x="480" 
d="M60 538q0 37 14 70t38.5 57.5t57.5 38.5t70 14t70 -14t57.5 -38.5t38.5 -57.5t14 -70t-14 -70t-38.5 -57.5t-57.5 -38.5t-70 -14t-70 14t-57.5 38.5t-38.5 57.5t-14 70zM150 538q0 -38 26 -64t64 -26t64 26t26 64t-26 64t-64 26t-64 -26t-26 -64z" />
    <glyph glyph-name="cent" unicode="&#xa2;" horiz-adv-x="511" 
d="M238 83q-47 10 -82 34t-58.5 59.5t-35.5 79t-12 92.5q0 53 14.5 100.5t43 84t70.5 59t98 26.5l6 87h71l-7 -90q39 -5 70.5 -19t57.5 -34l-8 -15q-11 -20 -23 -32.5t-31 -12.5q-14 0 -30.5 6.5t-41.5 11.5l-25 -348q38 4 62.5 15t41.5 11q19 0 30 -11.5t23 -31.5l9 -15
q-35 -27 -77 -44t-96 -19l-5 -77h-71zM269 521q-56 -9 -85 -53.5t-29 -119.5q0 -67 23 -109.5t67 -58.5z" />
    <glyph glyph-name="sterling" unicode="&#xa3;" horiz-adv-x="545" 
d="M137 309h-77v95h77v113q0 91 50 146t140 55q45 0 90.5 -11t87.5 -31q-14 -40 -27.5 -56.5t-36.5 -16.5q-12 0 -22 2.5t-21.5 5t-27 5t-37.5 2.5q-50 0 -73 -28t-23 -76v-110h166v-9q0 -45 -16 -65.5t-36 -20.5h-114v-209h208q20 0 35.5 -19.5t15.5 -63.5v-17h-359v309z
" />
    <glyph glyph-name="section" unicode="&#xa7;" horiz-adv-x="632" 
 />
    <glyph glyph-name="bullet" unicode="&#x2022;" horiz-adv-x="434" 
d="M80 329q0 28 10.5 53t29.5 44t43.5 29.5t53.5 10.5q28 0 53 -10.5t44 -29.5t29.5 -44t10.5 -53q0 -29 -10.5 -53.5t-29.5 -43.5t-44 -29.5t-53 -10.5q-29 0 -53.5 10.5t-43.5 29.5t-29.5 43.5t-10.5 53.5z" />
    <glyph glyph-name="paragraph" unicode="&#xb6;" horiz-adv-x="556" 
d="M226 341h-14q-38 0 -71 14.5t-57.5 39t-39 57.5t-14.5 71q0 37 14.5 70.5t39 58t57.5 39t71 14.5h94v-705h-80v341zM386 705h80v-705h-80v705z" />
    <glyph glyph-name="registered" unicode="&#xae;" horiz-adv-x="375" 
d="M188 712q94 0 135 -41.5t41 -135.5q0 -93 -41.5 -134.5t-134.5 -41.5t-134.5 41.5t-41.5 134.5q0 94 41 135.5t135 41.5zM188 381q81 0 117.5 36.5t36.5 117.5t-36.5 117.5t-117.5 36.5t-117.5 -36.5t-36.5 -117.5t36.5 -117.5t117.5 -36.5zM231 433l-40 80h-30v-80h-42
v207h82q29 0 47 -16t18 -47q0 -52 -38 -62l46 -82h-43zM203 548q10 0 17 6.5t7 20.5q0 15 -7 21.5t-17 6.5h-42v-55h42z" />
    <glyph glyph-name="copyright" unicode="&#xa9;" horiz-adv-x="791" 
d="M50 352q0 76 25.5 142.5t71 116t109 78.5t139.5 29t139.5 -29t109.5 -78.5t71.5 -116t25.5 -142.5t-25.5 -142.5t-71.5 -116t-109.5 -78t-139.5 -28.5t-139.5 28.5t-109 78t-71 116t-25.5 142.5zM125 352q0 -60 19.5 -113t55 -92.5t85.5 -62t110 -22.5t110 22.5t86 62
t55.5 92.5t19.5 113t-19.5 113t-55.5 92.5t-86 62.5t-110 23t-110 -23t-85.5 -62.5t-55 -92.5t-19.5 -113zM407 242q26 0 44.5 8t32.5 8t26.5 -10.5t24.5 -29.5l11 -19q-27 -22 -62.5 -37t-76.5 -15q-46 0 -81 16.5t-59 44.5t-36 65.5t-12 79.5t12 79.5t36 65.5t59 44t81 16
q41 0 74.5 -13.5t59.5 -33.5l-11 -19q-11 -20 -24 -31t-27 -11q-15 0 -30.5 6.5t-41.5 6.5q-41 0 -63 -29t-22 -81q0 -53 22 -82t63 -29z" />
    <glyph glyph-name="trademark" unicode="&#x2122;" horiz-adv-x="633" 
d="M297 705h57l86 -183l86 183h57v-301h-58v182l-63 -135h-44l-63 135v-182h-58v301zM117 650h-82v55h228v-7q0 -23 -8 -35.5t-18 -12.5h-60v-246h-60v246z" />
    <glyph glyph-name="acute" unicode="&#xb4;" horiz-adv-x="407" 
d="M191 740h116q-5 -22 -19.5 -42.5t-36.5 -41.5l-67 -66h-84z" />
    <glyph glyph-name="dieresis" unicode="&#xa8;" horiz-adv-x="500" 
d="M73 656q0 27 19.5 46.5t46.5 19.5t46.5 -19.5t19.5 -46.5t-19.5 -46.5t-46.5 -19.5t-46.5 19.5t-19.5 46.5zM295 656q0 27 19.5 46.5t46.5 19.5t46.5 -19.5t19.5 -46.5t-19.5 -46.5t-46.5 -19.5t-46.5 19.5t-19.5 46.5z" />
    <glyph glyph-name="AE" unicode="&#xc6;" horiz-adv-x="786" 
d="M340 164h-160l-51 -164h-109l220 705h486v-18q0 -44 -15.5 -63t-35.5 -19h-230v-184h223v-100h-223v-221h240q20 0 35.5 -19.5t15.5 -63.5v-17h-396v164zM210 264h130v341h-29z" />
    <glyph glyph-name="Oslash" unicode="&#xd8;" horiz-adv-x="662" 
d="M331 -13q-50 0 -90 13t-72 39l-27 -39h-102l71 104q-31 48 -46 110.5t-15 137.5q0 80 18 147.5t53 116t88 75.5t122 27q49 0 89.5 -13.5t72.5 -39.5l27 40h102l-71 -105q30 -48 45.5 -110.5t15.5 -137.5q0 -80 -18 -147t-53 -115.5t-88 -75.5t-122 -27zM331 87
q80 0 125.5 67.5t45.5 197.5q0 43 -5.5 79.5t-15.5 65.5l-253 -370q40 -40 103 -40zM160 352q0 -87 21 -145l252 370q-41 41 -102 41q-80 0 -125.5 -68t-45.5 -198z" />
    <glyph glyph-name="yen" unicode="&#xa5;" horiz-adv-x="603" 
d="M70 254h177v66l-20 39h-157v95h109l-126 251h118l131 -273l131 273h116l-129 -251h113v-95h-161l-20 -39v-66h181v-9q0 -45 -16 -65.5t-36 -20.5h-129v-159h-105v159h-177v95z" />
    <glyph glyph-name="ordfeminine" unicode="&#xaa;" horiz-adv-x="431" 
d="M288 492q-21 5 -47 7t-49 2q-34 0 -52.5 -11.5t-18.5 -39.5t18.5 -41.5t50.5 -13.5q45 0 71.5 24.5t26.5 72.5zM351 336q-26 0 -38.5 11.5t-17.5 29.5q-20 -23 -49 -36.5t-64 -13.5q-60 0 -98.5 32.5t-38.5 89.5q0 54 36.5 85.5t109.5 31.5q23 0 48.5 -2.5t48.5 -7.5v17
q0 32 -19 50.5t-61 18.5q-20 0 -35 -3t-27 -7t-22.5 -7t-19.5 -3q-22 0 -36 42l-3 10q35 17 71.5 26.5t76.5 9.5q148 0 148 -149v-225h-10z" />
    <glyph glyph-name="ordmasculine" unicode="&#xba;" horiz-adv-x="432" 
d="M216 327q-41 0 -73 15t-54 40.5t-33 60.5t-11 75t11 75.5t33 61t54 40.5t73 15t73 -15t53.5 -40.5t33 -61t11.5 -75.5t-11.5 -75t-33 -60.5t-53.5 -40.5t-73 -15zM216 642q-44 0 -69.5 -32t-25.5 -92q0 -59 25.5 -91t69.5 -32q45 0 70.5 32t25.5 91q0 60 -25.5 92
t-70.5 32z" />
    <glyph glyph-name="ae" unicode="&#xe6;" horiz-adv-x="867" 
d="M612 -13q-63 0 -107.5 25t-72.5 68q-36 -49 -86 -71t-107 -22q-41 0 -76 12t-60 34t-39 53.5t-14 70.5q0 75 50.5 118.5t151.5 43.5q31 0 67 -3.5t68 -10.5v24q0 44 -26.5 69.5t-85.5 25.5q-27 0 -47.5 -4t-37.5 -9.5t-31 -9.5t-27 -4q-17 0 -28.5 14t-21.5 43l-5 15
q49 23 99.5 36.5t105.5 13.5q119 0 164 -72q28 33 68.5 52.5t95.5 19.5q54 0 94 -19t66.5 -50.5t39 -71.5t12.5 -82q0 -43 -13.5 -65.5t-33.5 -22.5h-293q4 -33 16 -56.5t30 -39t40.5 -23t46.5 -7.5q25 0 45 4t35.5 9.5t27.5 9.5t21 4q16 0 30.5 -12.5t27.5 -40.5l7 -15
q-46 -26 -93.5 -40t-103.5 -14zM387 216q-29 6 -65 9.5t-68 3.5q-48 0 -73.5 -16.5t-25.5 -54.5t25.5 -57t70.5 -19q62 0 99 34t37 100zM723 303q-3 53 -30.5 87t-86.5 34q-57 0 -87.5 -34.5t-35.5 -86.5h240z" />
    <glyph glyph-name="oslash" unicode="&#xf8;" horiz-adv-x="574" 
d="M287 -13q-78 0 -134 39l-21 -26h-102l67 83q-47 70 -47 170q0 56 15.5 104.5t46 84.5t74.5 56.5t101 20.5q40 0 73 -10.5t60 -28.5l22 26h102l-68 -83q48 -71 48 -170q0 -56 -15.5 -104.5t-46 -84.5t-74.5 -56.5t-101 -20.5zM287 424q-61 0 -96.5 -44.5t-35.5 -126.5
q0 -50 12 -84l191 234q-32 21 -71 21zM419 253q0 50 -13 83l-190 -234q29 -20 71 -20q61 0 96.5 44.5t35.5 126.5z" />
    <glyph glyph-name="questiondown" unicode="&#xbf;" horiz-adv-x="481" 
d="M344 84l-50 -4q-62 -5 -93 -29t-31 -69q0 -44 28.5 -69t85.5 -25q35 0 60 4.5t43 4.5q23 0 34.5 -21.5t19.5 -62.5q-37 -12 -77.5 -18.5t-85.5 -6.5q-54 0 -94.5 15t-66.5 41t-39 61.5t-13 76.5q0 75 43 122t133 61l3 101h93zM290 519q31 0 53 -22t22 -53t-22 -53
t-53 -22t-53 22t-22 53t22 53t53 22z" />
    <glyph glyph-name="exclamdown" unicode="&#xa1;" horiz-adv-x="290" 
d="M220 444q0 -31 -22 -53t-53 -22t-53 22t-22 53t22 53t53 22t53 -22t22 -53zM89 -199l10 443h92l10 -443h-112z" />
    <glyph glyph-name="florin" unicode="&#x192;" horiz-adv-x="536" 
 />
    <glyph glyph-name="guillemotleft" unicode="&#xab;" horiz-adv-x="577" 
d="M401 294l101 -192h-104l-103 192l103 192h104zM181 294l101 -192h-104l-103 192l103 192h104z" />
    <glyph glyph-name="guillemotright" unicode="&#xbb;" horiz-adv-x="577" 
d="M75 486h104l103 -192l-103 -192h-104l101 192zM295 486h104l103 -192l-103 -192h-104l101 192z" />
    <glyph glyph-name="ellipsis" unicode="&#x2026;" horiz-adv-x="835" 
d="M80 55q0 28 20 47.5t47 19.5q28 0 48 -19.5t20 -47.5t-20 -48t-48 -20q-27 0 -47 20t-20 48zM350 55q0 28 20 47.5t47 19.5q28 0 48 -19.5t20 -47.5t-20 -48t-48 -20q-27 0 -47 20t-20 48zM620 55q0 28 20 47.5t47 19.5q28 0 48 -19.5t20 -47.5t-20 -48t-48 -20
q-27 0 -47 20t-20 48z" />
    <glyph glyph-name="uni00A0" unicode="&#xa0;" 
 />
    <glyph glyph-name="OE" unicode="&#x152;" horiz-adv-x="948" 
d="M512 64q-32 -37 -76.5 -57t-104.5 -20q-69 0 -122 27t-88 75.5t-53 115.5t-18 147t18 147.5t53 116t88 75.5t122 27q60 0 104.5 -20.5t76.5 -57.5v65h376v-18q0 -44 -15.5 -63t-35.5 -19h-230v-184h223v-100h-223v-221h240q20 0 35.5 -19.5t15.5 -63.5v-17h-386v64z
M331 87q80 0 125.5 67.5t45.5 197.5t-45.5 198t-125.5 68t-125.5 -68t-45.5 -198t45.5 -197.5t125.5 -67.5z" />
    <glyph glyph-name="oe" unicode="&#x153;" horiz-adv-x="899" 
d="M644 -13q-62 0 -106 23.5t-72 65.5q-28 -42 -72.5 -65.5t-106.5 -23.5q-57 0 -101 20.5t-74.5 56.5t-46 84.5t-15.5 104.5t15.5 104.5t46 84.5t74.5 56.5t101 20.5q62 0 106 -23.5t73 -65.5q27 41 71 65t105 24q54 0 94 -19t66.5 -50.5t39 -71.5t12.5 -82
q0 -43 -13.5 -65.5t-33.5 -22.5h-293q4 -33 16 -56.5t30 -39t40.5 -23t46.5 -7.5q25 0 45 4t35.5 9.5t27.5 9.5t21 4q16 0 30.5 -12.5t27.5 -40.5l7 -15q-46 -26 -93.5 -40t-103.5 -14zM287 424q-61 0 -96.5 -44.5t-35.5 -126.5t35.5 -126.5t96.5 -44.5t96.5 44.5
t35.5 126.5t-35.5 126.5t-96.5 44.5zM755 303q-3 53 -30.5 87t-86.5 34q-57 0 -87.5 -34.5t-35.5 -86.5h240z" />
    <glyph glyph-name="endash" unicode="&#x2013;" horiz-adv-x="603" 
d="M70 374h473v-9q0 -45 -16 -65.5t-36 -20.5h-421v95z" />
    <glyph glyph-name="emdash" unicode="&#x2014;" horiz-adv-x="903" 
d="M70 374h773v-9q0 -45 -16 -65.5t-36 -20.5h-721v95z" />
    <glyph glyph-name="quotedblleft" unicode="&#x201c;" horiz-adv-x="474" 
d="M40 465q3 37 14.5 73t28 67.5t37 57t43.5 42.5h51l-73 -240h-101zM250 465q3 37 14.5 73t28 67.5t37 57t43.5 42.5h51l-73 -240h-101z" />
    <glyph glyph-name="quotedblright" unicode="&#x201d;" horiz-adv-x="474" 
d="M224 705q-3 -37 -14.5 -73t-28 -67.5t-37.5 -57t-43 -42.5h-51l73 240h101zM434 705q-3 -37 -14.5 -73t-28 -67.5t-37.5 -57t-43 -42.5h-51l73 240h101z" />
    <glyph glyph-name="quoteleft" unicode="&#x2018;" horiz-adv-x="264" 
d="M40 465q3 37 14.5 73t28 67.5t37 57t43.5 42.5h51l-73 -240h-101z" />
    <glyph glyph-name="quoteright" unicode="&#x2019;" horiz-adv-x="264" 
d="M224 705q-3 -37 -14.5 -73t-28 -67.5t-37.5 -57t-43 -42.5h-51l73 240h101z" />
    <glyph glyph-name="divide" unicode="&#xf7;" horiz-adv-x="603" 
d="M235 109q0 28 19.5 47.5t47.5 19.5q27 0 47 -19.5t20 -47.5q0 -27 -20 -47t-47 -20q-28 0 -47.5 20t-19.5 47zM70 374h473v-9q0 -45 -16 -65.5t-36 -20.5h-421v95zM235 521q0 28 19.5 47.5t47.5 19.5q27 0 47 -19.5t20 -47.5q0 -27 -20 -47t-47 -20q-28 0 -47.5 20
t-19.5 47z" />
    <glyph glyph-name="fraction" unicode="&#x2044;" horiz-adv-x="295" 
d="M320 705h67l-412 -705h-67z" />
    <glyph glyph-name="Euro" unicode="&#x20ac;" horiz-adv-x="662" 
d="M40 492h86q26 103 92 164.5t173 61.5q62 0 108 -17.5t88 -51.5l-10 -16q-14 -22 -27.5 -33t-31.5 -11q-11 0 -21.5 4.5t-24 10t-32.5 10t-49 4.5q-55 0 -93.5 -32t-58.5 -94h214v-95h-232q-1 -11 -1 -22.5v-22.5v-22.5t1 -21.5h232v-9q0 -45 -16 -65.5t-36 -20.5h-162
q20 -63 58.5 -94.5t93.5 -31.5q31 0 52.5 5t36.5 11.5t26 11.5t22 5q18 0 31.5 -11t27.5 -33l10 -16q-45 -37 -94 -55t-112 -18q-107 0 -173 61t-92 165h-86v95h71q-1 11 -1 22v22v22.5t1 22.5h-71v95z" />
    <glyph glyph-name="guilsinglleft" unicode="&#x2039;" horiz-adv-x="357" 
d="M181 294l101 -192h-104l-103 192l103 192h104z" />
    <glyph glyph-name="guilsinglright" unicode="&#x203a;" horiz-adv-x="357" 
d="M75 486h104l103 -192l-103 -192h-104l101 192z" />
    <glyph glyph-name="daggerdbl" unicode="&#x2021;" horiz-adv-x="400" 
d="M345 376q0 -31 -9.5 -47t-24.5 -16h-75v-122h-77v122h-99v73h99v124h-99v73h99v122h77v-122h109v-10q0 -31 -9.5 -47t-24.5 -16h-75v-124h109v-10z" />
    <glyph glyph-name="periodcentered" unicode="&#xb7;" horiz-adv-x="290" 
d="M70 312q0 31 22 53t53 22t53 -22t22 -53t-22 -53t-53 -22t-53 22t-22 53z" />
    <glyph glyph-name="quotesinglbase" unicode="&#x201a;" horiz-adv-x="264" 
d="M224 125q-3 -37 -14.5 -73t-28 -67.5t-37.5 -57t-43 -42.5h-51l73 240h101z" />
    <glyph glyph-name="quotedblbase" unicode="&#x201e;" horiz-adv-x="474" 
d="M224 125q-3 -37 -14.5 -73t-28 -67.5t-37.5 -57t-43 -42.5h-51l73 240h101zM434 125q-3 -37 -14.5 -73t-28 -67.5t-37.5 -57t-43 -42.5h-51l73 240h101z" />
    <glyph glyph-name="dotlessi" unicode="&#x131;" 
d="M80 506h100v-506h-100v506z" />
    <glyph glyph-name="circumflex" unicode="&#x2c6;" horiz-adv-x="474" 
d="M80 590l124 150h66l124 -150h-92l-65 64l-65 -64h-92z" />
    <glyph glyph-name="tilde" unicode="&#x2dc;" horiz-adv-x="509" 
d="M60 643q32 35 61.5 55t63.5 20q23 0 40 -4.5t32.5 -10.5t31.5 -10.5t39 -4.5q24 0 45.5 9t44.5 26l31 -50q-32 -35 -61.5 -55t-63.5 -20q-23 0 -40 4.5t-32.5 10.5t-32 10.5t-38.5 4.5q-24 0 -45.5 -9t-44.5 -26z" />
    <glyph glyph-name="macron" unicode="&#xaf;" horiz-adv-x="502" 
d="M90 601v90h327v-21q0 -34 -10.5 -51.5t-24.5 -17.5h-292z" />
    <glyph glyph-name="breve" unicode="&#x2d8;" horiz-adv-x="500" 
d="M141 748q11 -30 37 -49.5t74 -19.5q46 0 72.5 19.5t37.5 49.5l60 -16q-9 -61 -52 -98t-118 -37t-118 37t-52 98z" />
    <glyph glyph-name="dotaccent" unicode="&#x2d9;" horiz-adv-x="450" 
d="M150 662q0 31 22 53t53 22t53 -22t22 -53t-22 -53t-53 -22t-53 22t-22 53z" />
    <glyph glyph-name="ring" unicode="&#x2da;" horiz-adv-x="482" 
d="M120 692q0 25 9.5 47t26 38.5t38.5 26t47 9.5t47 -9.5t38.5 -26t26 -38.5t9.5 -47t-9.5 -47t-26 -38.5t-38.5 -26t-47 -9.5t-47 9.5t-38.5 26t-26 38.5t-9.5 47zM184 692q0 -23 17 -40t40 -17t40 17t17 40t-17 40t-40 17t-40 -17t-17 -40z" />
    <glyph glyph-name="cedilla" unicode="&#xb8;" horiz-adv-x="327" 
d="M151 -60h116q-5 -22 -19.5 -42.5t-36.5 -41.5l-67 -66h-84z" />
    <glyph glyph-name="hungarumlaut" unicode="&#x2dd;" horiz-adv-x="527" 
d="M161 740h116q-5 -22 -19.5 -42.5t-36.5 -41.5l-67 -66h-84zM341 740h116q-5 -22 -19.5 -42.5t-36.5 -41.5l-67 -66h-84z" />
    <glyph glyph-name="ogonek" unicode="&#x2db;" horiz-adv-x="310" 
d="M201 20q-26 -28 -41 -57t-15 -57t24 -37.5t76 6.5l14 -49q-22 -14 -49.5 -25t-59.5 -11q-42 0 -68.5 24.5t-26.5 66.5q0 35 18.5 70t53.5 69h74z" />
    <glyph glyph-name="caron" unicode="&#x2c7;" horiz-adv-x="474" 
d="M394 740l-124 -150h-66l-124 150h92l65 -64l65 64h92z" />
    <glyph glyph-name="eth" unicode="&#xf0;" horiz-adv-x="665" 
d="M129 606l95 27q-21 19 -44 37t-48 35h180q11 -8 21 -16.5t21 -17.5l133 39l23 -81l-93 -27q57 -74 87 -165.5t30 -188.5q0 -54 -16 -101.5t-47 -83t-77 -56t-107 -20.5t-107 20.5t-77 56t-47 83t-16 101.5t16 101.5t47 83t77 56t107 20.5q29 0 51 -7q-11 17 -22 32.5
t-25 30.5l-138 -40zM287 384q-54 0 -83 -35t-29 -101t29 -101t83 -35t83 35t29 101t-29 101t-83 35z" />
    <glyph glyph-name="Eth" unicode="&#xd0;" horiz-adv-x="650" 
d="M20 410h75v295h199q69 0 124 -23.5t93.5 -69t58.5 -111t20 -149.5t-20 -149.5t-58.5 -110.5t-93.5 -68.5t-124 -23.5h-199v315h-75v95zM287 100q95 0 144 65t49 187t-49 187.5t-144 65.5h-87v-195h138v-9q0 -45 -16 -65.5t-36 -20.5h-86v-215h87z" />
    <glyph glyph-name="space" unicode=" " 
 />
    <glyph glyph-name="perthousand" unicode="&#x2030;" horiz-adv-x="1193" 
d="M616 705h98l-507 -705h-98zM50 547q0 39 12.5 70.5t34.5 54t51.5 34.5t62.5 12t62.5 -12t51.5 -34.5t34.5 -54t12.5 -70.5t-12.5 -70.5t-34.5 -54t-51.5 -34.5t-62.5 -12t-62.5 12t-51.5 34.5t-34.5 54t-12.5 70.5zM131 547q0 -40 22.5 -65t57.5 -25t57.5 25t22.5 65
t-22.5 65t-57.5 25t-57.5 -25t-22.5 -65zM451 158q0 39 12.5 70.5t34.5 54t51.5 34.5t62.5 12t62.5 -12t51.5 -34.5t34.5 -54t12.5 -70.5t-12.5 -70.5t-34.5 -54t-51.5 -34.5t-62.5 -12t-62.5 12t-51.5 34.5t-34.5 54t-12.5 70.5zM532 158q0 -40 22.5 -65t57.5 -25t57.5 25
t22.5 65t-22.5 65t-57.5 25t-57.5 -25t-22.5 -65zM821 158q0 39 12.5 70.5t34.5 54t51.5 34.5t62.5 12t62.5 -12t51.5 -34.5t34.5 -54t12.5 -70.5t-12.5 -70.5t-34.5 -54t-51.5 -34.5t-62.5 -12t-62.5 12t-51.5 34.5t-34.5 54t-12.5 70.5zM902 158q0 -40 22.5 -65t57.5 -25
t57.5 25t22.5 65t-22.5 65t-57.5 25t-57.5 -25t-22.5 -65z" />
    <glyph glyph-name="minus" unicode="&#x2212;" horiz-adv-x="603" 
d="M70 374h473v-9q0 -45 -16 -65.5t-36 -20.5h-421v95z" />
    <glyph glyph-name="notequal" unicode="&#x2260;" horiz-adv-x="603" 
d="M100 489h234l56 115h93l-56 -115h86v-9q0 -45 -16 -65.5t-36 -20.5h-79l-68 -140h199v-9q0 -45 -16 -65.5t-36 -20.5h-193l-55 -115h-93l55 115h-75v95h121l68 140h-189v95z" />
    <glyph glyph-name="uni00AD" unicode="&#xad;" horiz-adv-x="394" 
d="M75 379h254v-19q0 -45 -11 -65.5t-31 -20.5h-212v105z" />
    <glyph glyph-name="fi" unicode="&#xfb01;" horiz-adv-x="585" 
d="M100 411h-77v95h77v59q0 35 9.5 64.5t28.5 51.5t47.5 34t66.5 12q14 0 28 -1t29 -3l-16 -90h-23q-26 0 -48 -14t-22 -45v-68h116v-9q0 -45 -16 -65.5t-36 -20.5h-64v-411h-100v411zM405 506h100v-506h-100v506zM455 616q-23 0 -40 17t-17 40t17 40t40 17t40 -17t17 -40
t-17 -40t-40 -17z" />
    <glyph glyph-name="fl" unicode="&#xfb02;" horiz-adv-x="585" 
d="M100 411h-77v95h77v59q0 35 9.5 64.5t28.5 51.5t47.5 34t66.5 12q14 0 28 -1t29 -3l-16 -90h-23q-26 0 -48 -14t-22 -45v-68h116v-9q0 -45 -16 -65.5t-36 -20.5h-64v-411h-100v411zM505 730v-730h-100v730h100z" />
    <glyph glyph-name="foursuperior" unicode="&#x2074;" horiz-adv-x="355" 
d="M210 397h-131q-15 0 -26 11.5t-17 40.5l178 256h53v-250h54v-6q0 -26 -9.5 -39t-20.5 -13h-24v-99h-57v99zM213 612l-102 -157h99z" />
    <glyph glyph-name="Scaron" unicode="&#x160;" horiz-adv-x="544" 
d="M45 61q14 35 29 48.5t34 13.5q10 0 27 -5.5t38 -12.5t46 -12.5t52 -5.5q61 0 93 32t32 77q0 22 -9 39t-27.5 30.5t-46 25t-64.5 22.5q-48 15 -85 33t-62 42.5t-38 56t-13 72.5q0 39 13.5 75t40.5 64t67.5 45t94.5 17q50 0 105 -14.5t106 -40.5q-17 -41 -31.5 -55.5
t-37.5 -14.5q-12 0 -26 4t-31.5 8.5t-37 8.5t-41.5 4q-57 0 -86 -29.5t-29 -71.5q0 -41 34.5 -62.5t110.5 -44.5q55 -17 93.5 -37.5t62.5 -47t34.5 -58.5t10.5 -71q0 -45 -13.5 -83.5t-42 -66t-71.5 -43.5t-101 -16q-53 0 -112.5 14t-123.5 47zM429 929l-124 -150h-66
l-124 150h92l65 -64l65 64h92z" />
    <glyph glyph-name="scaron" unicode="&#x161;" horiz-adv-x="479" 
d="M51 46q11 33 24 45.5t27 12.5q12 0 25.5 -3.5t31 -7.5t38 -7.5t46.5 -3.5q44 0 63.5 16t19.5 46q0 23 -20 35t-49.5 20t-64 16.5t-64 24t-49.5 43t-20 73.5q0 36 13 66t36.5 51.5t56 33.5t71.5 12q47 0 92 -12t87 -31l-4 -12q-11 -31 -24.5 -44.5t-33.5 -13.5
q-21 0 -47.5 9t-68.5 9q-36 0 -56.5 -15t-20.5 -46q0 -25 20 -37t50 -19.5t64.5 -15t64.5 -22.5t50 -43t20 -76q0 -75 -48.5 -119t-139.5 -44q-50 0 -99.5 10.5t-96.5 29.5zM396 730l-124 -150h-66l-124 150h92l65 -64l65 64h92z" />
    <glyph glyph-name="Yacute" unicode="&#xdd;" horiz-adv-x="536" 
d="M214 300l-204 405h118l141 -293l141 293h116l-207 -405v-300h-105v300zM295 929h116q-5 -22 -19.5 -42.5t-36.5 -41.5l-67 -66h-84z" />
    <glyph glyph-name="yacute" unicode="&#xfd;" horiz-adv-x="498" 
d="M267 -103q-20 -57 -51 -88.5t-88 -31.5q-22 0 -46 5t-44 13l5 19q17 64 47 64q8 0 16 -1t17 -1q22 0 32.5 14t16.5 31l26 73l-178 512h110l121 -367l118 367h109zM276 730h116q-5 -22 -19.5 -42.5t-36.5 -41.5l-67 -66h-84z" />
    <glyph glyph-name="Zcaron" unicode="&#x17d;" horiz-adv-x="564" 
d="M50 84l316 521h-262q-20 0 -35 21.5t-15 62.5v16h443v-84l-315 -521h287q20 0 35 -20t15 -61v-19h-469v84zM439 929l-124 -150h-66l-124 150h92l65 -64l65 64h92z" />
    <glyph glyph-name="zcaron" unicode="&#x17e;" horiz-adv-x="496" 
d="M50 71l253 340h-195q-20 0 -35.5 19.5t-15.5 63.5v12h380v-68l-245 -343h208q20 0 35.5 -19.5t15.5 -63.5v-12h-401v71zM405 730l-124 -150h-66l-124 150h92l65 -64l65 64h92z" />
    <glyph glyph-name="Adieresis" unicode="&#xc4;" horiz-adv-x="592" 
d="M240 705h111l221 -705h-112l-42 134h-248l-41 -134h-109zM201 234h187l-92 319zM119 845q0 27 19.5 46.5t46.5 19.5t46.5 -19.5t19.5 -46.5t-19.5 -46.5t-46.5 -19.5t-46.5 19.5t-19.5 46.5zM341 845q0 27 19.5 46.5t46.5 19.5t46.5 -19.5t19.5 -46.5t-19.5 -46.5
t-46.5 -19.5t-46.5 19.5t-19.5 46.5z" />
    <glyph glyph-name="Aring" unicode="&#xc5;" horiz-adv-x="592" 
d="M240 705h111l221 -705h-112l-42 134h-248l-41 -134h-109zM175 881q0 25 9.5 47t26 38.5t38.5 26t47 9.5t47 -9.5t38.5 -26t26 -38.5t9.5 -47t-9.5 -47t-26 -38.5t-38.5 -26t-47 -9.5t-47 9.5t-38.5 26t-26 38.5t-9.5 47zM201 234h187l-92 319zM239 881q0 -23 17 -40
t40 -17t40 17t17 40t-17 40t-40 17t-40 -17t-17 -40z" />
    <glyph glyph-name="Ccedilla" unicode="&#xc7;" horiz-adv-x="567" 
d="M331 -13q-69 0 -122 27t-88 75.5t-53 115.5t-18 147t18 147.5t53 116t88 75.5t122 27q62 0 108 -17.5t88 -51.5l-10 -16q-14 -22 -27.5 -33t-31.5 -11q-11 0 -21.5 4.5t-24 10t-32.5 10t-49 4.5q-80 0 -125.5 -68t-45.5 -198t45.5 -197.5t125.5 -67.5q31 0 52.5 5
t36.5 11.5t26 11.5t22 5q18 0 31.5 -11t27.5 -33l10 -16q-45 -37 -94 -55t-112 -18zM271 -60h116q-5 -22 -19.5 -42.5t-36.5 -41.5l-67 -66h-84z" />
    <glyph glyph-name="Eacute" unicode="&#xc9;" horiz-adv-x="531" 
d="M85 705h386v-18q0 -44 -15.5 -63t-35.5 -19h-230v-184h223v-100h-223v-221h240q20 0 35.5 -19.5t15.5 -63.5v-17h-396v705zM293 929h116q-5 -22 -19.5 -42.5t-36.5 -41.5l-67 -66h-84z" />
    <glyph glyph-name="Ntilde" unicode="&#xd1;" horiz-adv-x="671" 
d="M85 705h98l298 -492v492h105v-705h-92l-304 501v-501h-105v705zM141 832q32 35 61.5 55t63.5 20q23 0 40 -4.5t32.5 -10.5t31.5 -10.5t39 -4.5q24 0 45.5 9t44.5 26l31 -50q-32 -35 -61.5 -55t-63.5 -20q-23 0 -40 4.5t-32.5 10.5t-32 10.5t-38.5 4.5q-24 0 -45.5 -9
t-44.5 -26z" />
    <glyph glyph-name="Odieresis" unicode="&#xd6;" horiz-adv-x="662" 
d="M331 -13q-69 0 -122 27t-88 75.5t-53 115.5t-18 147t18 147.5t53 116t88 75.5t122 27t122 -27t88 -75.5t53 -116t18 -147.5t-18 -147t-53 -115.5t-88 -75.5t-122 -27zM331 87q80 0 125.5 67.5t45.5 197.5t-45.5 198t-125.5 68t-125.5 -68t-45.5 -198t45.5 -197.5
t125.5 -67.5zM154 845q0 27 19.5 46.5t46.5 19.5t46.5 -19.5t19.5 -46.5t-19.5 -46.5t-46.5 -19.5t-46.5 19.5t-19.5 46.5zM376 845q0 27 19.5 46.5t46.5 19.5t46.5 -19.5t19.5 -46.5t-19.5 -46.5t-46.5 -19.5t-46.5 19.5t-19.5 46.5z" />
    <glyph glyph-name="Udieresis" unicode="&#xdc;" horiz-adv-x="664" 
d="M332 -13q-60 0 -106 18.5t-77.5 51t-47.5 75t-16 90.5v483h105v-476q0 -30 8.5 -56t25.5 -45t44 -30t64 -11t64 11t44 30t25.5 45t8.5 56v476h105v-483q0 -48 -16 -90.5t-47.5 -75t-77.5 -51t-106 -18.5zM155 845q0 27 19.5 46.5t46.5 19.5t46.5 -19.5t19.5 -46.5
t-19.5 -46.5t-46.5 -19.5t-46.5 19.5t-19.5 46.5zM377 845q0 27 19.5 46.5t46.5 19.5t46.5 -19.5t19.5 -46.5t-19.5 -46.5t-46.5 -19.5t-46.5 19.5t-19.5 46.5z" />
    <glyph glyph-name="aacute" unicode="&#xe1;" horiz-adv-x="562" 
d="M387 216q-29 6 -65 9.5t-68 3.5q-48 0 -73.5 -16.5t-25.5 -54.5t25.5 -57t70.5 -19q62 0 99 34t37 100zM473 0q-35 0 -53 15.5t-24 41.5q-28 -32 -68 -51t-89 -19q-41 0 -76 12t-60 34t-39 53.5t-14 70.5q0 75 50.5 118.5t151.5 43.5q31 0 67 -3.5t68 -10.5v24
q0 44 -26.5 69.5t-85.5 25.5q-27 0 -47.5 -4t-37.5 -9.5t-31 -9.5t-27 -4q-17 0 -28.5 14t-21.5 43l-5 15q49 23 99.5 36.5t105.5 13.5q205 0 205 -207v-312h-14zM308 730h116q-5 -22 -19.5 -42.5t-36.5 -41.5l-67 -66h-84z" />
    <glyph glyph-name="agrave" unicode="&#xe0;" horiz-adv-x="562" 
d="M387 216q-29 6 -65 9.5t-68 3.5q-48 0 -73.5 -16.5t-25.5 -54.5t25.5 -57t70.5 -19q62 0 99 34t37 100zM473 0q-35 0 -53 15.5t-24 41.5q-28 -32 -68 -51t-89 -19q-41 0 -76 12t-60 34t-39 53.5t-14 70.5q0 75 50.5 118.5t151.5 43.5q31 0 67 -3.5t68 -10.5v24
q0 44 -26.5 69.5t-85.5 25.5q-27 0 -47.5 -4t-37.5 -9.5t-31 -9.5t-27 -4q-17 0 -28.5 14t-21.5 43l-5 15q49 23 99.5 36.5t105.5 13.5q205 0 205 -207v-312h-14zM344 580h-84l-67 66q-22 21 -36.5 41.5t-19.5 42.5h116z" />
    <glyph glyph-name="acircumflex" unicode="&#xe2;" horiz-adv-x="562" 
d="M473 0q-35 0 -53 15.5t-24 41.5q-28 -32 -68 -51t-89 -19q-41 0 -76 12t-60 34t-39 53.5t-14 70.5q0 75 50.5 118.5t151.5 43.5q31 0 67 -3.5t68 -10.5v24q0 44 -26.5 69.5t-85.5 25.5q-27 0 -47.5 -4t-37.5 -9.5t-31 -9.5t-27 -4q-17 0 -28.5 14t-21.5 43l-5 15
q49 23 99.5 36.5t105.5 13.5q205 0 205 -207v-312h-14zM387 216q-29 6 -65 9.5t-68 3.5q-48 0 -73.5 -16.5t-25.5 -54.5t25.5 -57t70.5 -19q62 0 99 34t37 100zM124 580l124 150h66l124 -150h-92l-65 64l-65 -64h-92z" />
    <glyph glyph-name="adieresis" unicode="&#xe4;" horiz-adv-x="562" 
d="M387 216q-29 6 -65 9.5t-68 3.5q-48 0 -73.5 -16.5t-25.5 -54.5t25.5 -57t70.5 -19q62 0 99 34t37 100zM473 0q-35 0 -53 15.5t-24 41.5q-28 -32 -68 -51t-89 -19q-41 0 -76 12t-60 34t-39 53.5t-14 70.5q0 75 50.5 118.5t151.5 43.5q31 0 67 -3.5t68 -10.5v24
q0 44 -26.5 69.5t-85.5 25.5q-27 0 -47.5 -4t-37.5 -9.5t-31 -9.5t-27 -4q-17 0 -28.5 14t-21.5 43l-5 15q49 23 99.5 36.5t105.5 13.5q205 0 205 -207v-312h-14zM104 646q0 27 19.5 46.5t46.5 19.5t46.5 -19.5t19.5 -46.5t-19.5 -46.5t-46.5 -19.5t-46.5 19.5t-19.5 46.5z
M326 646q0 27 19.5 46.5t46.5 19.5t46.5 -19.5t19.5 -46.5t-19.5 -46.5t-46.5 -19.5t-46.5 19.5t-19.5 46.5z" />
    <glyph glyph-name="atilde" unicode="&#xe3;" horiz-adv-x="562" 
d="M387 216q-29 6 -65 9.5t-68 3.5q-48 0 -73.5 -16.5t-25.5 -54.5t25.5 -57t70.5 -19q62 0 99 34t37 100zM473 0q-35 0 -53 15.5t-24 41.5q-28 -32 -68 -51t-89 -19q-41 0 -76 12t-60 34t-39 53.5t-14 70.5q0 75 50.5 118.5t151.5 43.5q31 0 67 -3.5t68 -10.5v24
q0 44 -26.5 69.5t-85.5 25.5q-27 0 -47.5 -4t-37.5 -9.5t-31 -9.5t-27 -4q-17 0 -28.5 14t-21.5 43l-5 15q49 23 99.5 36.5t105.5 13.5q205 0 205 -207v-312h-14zM86 633q32 35 61.5 55t63.5 20q23 0 40 -4.5t32.5 -10.5t31.5 -10.5t39 -4.5q24 0 45.5 9t44.5 26l31 -50
q-32 -35 -61.5 -55t-63.5 -20q-23 0 -40 4.5t-32.5 10.5t-32 10.5t-38.5 4.5q-24 0 -45.5 -9t-44.5 -26z" />
    <glyph glyph-name="aring" unicode="&#xe5;" horiz-adv-x="562" 
d="M387 216q-29 6 -65 9.5t-68 3.5q-48 0 -73.5 -16.5t-25.5 -54.5t25.5 -57t70.5 -19q62 0 99 34t37 100zM473 0q-35 0 -53 15.5t-24 41.5q-28 -32 -68 -51t-89 -19q-41 0 -76 12t-60 34t-39 53.5t-14 70.5q0 75 50.5 118.5t151.5 43.5q31 0 67 -3.5t68 -10.5v24
q0 44 -26.5 69.5t-85.5 25.5q-27 0 -47.5 -4t-37.5 -9.5t-31 -9.5t-27 -4q-17 0 -28.5 14t-21.5 43l-5 15q49 23 99.5 36.5t105.5 13.5q205 0 205 -207v-312h-14zM160 682q0 25 9.5 47t26 38.5t38.5 26t47 9.5t47 -9.5t38.5 -26t26 -38.5t9.5 -47t-9.5 -47t-26 -38.5
t-38.5 -26t-47 -9.5t-47 9.5t-38.5 26t-26 38.5t-9.5 47zM224 682q0 -23 17 -40t40 -17t40 17t17 40t-17 40t-40 17t-40 -17t-17 -40z" />
    <glyph glyph-name="ccedilla" unicode="&#xe7;" horiz-adv-x="491" 
d="M287 -13q-57 0 -101 20.5t-74.5 56.5t-46 84.5t-15.5 104.5t15.5 104.5t46 84.5t74.5 56.5t101 20.5q51 0 92 -15.5t75 -41.5l-8 -15q-11 -20 -23 -32.5t-31 -12.5q-10 0 -20 3.5t-22.5 7.5t-28 7.5t-34.5 3.5q-61 0 -96.5 -44.5t-35.5 -126.5t35.5 -126.5t96.5 -44.5
q19 0 35.5 4t30.5 9t25.5 9t20.5 4q19 0 30 -11.5t23 -31.5l9 -15q-36 -29 -79.5 -46t-94.5 -17zM233 -60h116q-5 -22 -19.5 -42.5t-36.5 -41.5l-67 -66h-84z" />
    <glyph glyph-name="eacute" unicode="&#xe9;" horiz-adv-x="540" 
d="M285 -13q-57 0 -101 21t-73.5 57t-45 84.5t-15.5 103.5t15 103.5t44.5 84.5t73 57t100.5 21q54 0 94 -19t66.5 -50.5t39 -71.5t12.5 -82q0 -43 -13.5 -65.5t-33.5 -22.5h-293q4 -33 16 -56.5t30 -39t40.5 -23t46.5 -7.5q25 0 45 4t35.5 9.5t27.5 9.5t21 4
q16 0 30.5 -12.5t27.5 -40.5l7 -15q-46 -26 -93.5 -40t-103.5 -14zM396 303q-3 53 -30.5 87t-86.5 34q-57 0 -87.5 -34.5t-35.5 -86.5h240zM317 730h116q-5 -22 -19.5 -42.5t-36.5 -41.5l-67 -66h-84z" />
    <glyph glyph-name="egrave" unicode="&#xe8;" horiz-adv-x="540" 
d="M285 -13q-57 0 -101 21t-73.5 57t-45 84.5t-15.5 103.5t15 103.5t44.5 84.5t73 57t100.5 21q54 0 94 -19t66.5 -50.5t39 -71.5t12.5 -82q0 -43 -13.5 -65.5t-33.5 -22.5h-293q4 -33 16 -56.5t30 -39t40.5 -23t46.5 -7.5q25 0 45 4t35.5 9.5t27.5 9.5t21 4
q16 0 30.5 -12.5t27.5 -40.5l7 -15q-46 -26 -93.5 -40t-103.5 -14zM396 303q-3 53 -30.5 87t-86.5 34q-57 0 -87.5 -34.5t-35.5 -86.5h240zM353 580h-84l-67 66q-22 21 -36.5 41.5t-19.5 42.5h116z" />
    <glyph glyph-name="ecircumflex" unicode="&#xea;" horiz-adv-x="540" 
d="M285 -13q-57 0 -101 21t-73.5 57t-45 84.5t-15.5 103.5t15 103.5t44.5 84.5t73 57t100.5 21q54 0 94 -19t66.5 -50.5t39 -71.5t12.5 -82q0 -43 -13.5 -65.5t-33.5 -22.5h-293q4 -33 16 -56.5t30 -39t40.5 -23t46.5 -7.5q25 0 45 4t35.5 9.5t27.5 9.5t21 4
q16 0 30.5 -12.5t27.5 -40.5l7 -15q-46 -26 -93.5 -40t-103.5 -14zM133 580l124 150h66l124 -150h-92l-65 64l-65 -64h-92zM396 303q-3 53 -30.5 87t-86.5 34q-57 0 -87.5 -34.5t-35.5 -86.5h240z" />
    <glyph glyph-name="edieresis" unicode="&#xeb;" horiz-adv-x="540" 
d="M285 -13q-57 0 -101 21t-73.5 57t-45 84.5t-15.5 103.5t15 103.5t44.5 84.5t73 57t100.5 21q54 0 94 -19t66.5 -50.5t39 -71.5t12.5 -82q0 -43 -13.5 -65.5t-33.5 -22.5h-293q4 -33 16 -56.5t30 -39t40.5 -23t46.5 -7.5q25 0 45 4t35.5 9.5t27.5 9.5t21 4
q16 0 30.5 -12.5t27.5 -40.5l7 -15q-46 -26 -93.5 -40t-103.5 -14zM396 303q-3 53 -30.5 87t-86.5 34q-57 0 -87.5 -34.5t-35.5 -86.5h240zM113 646q0 27 19.5 46.5t46.5 19.5t46.5 -19.5t19.5 -46.5t-19.5 -46.5t-46.5 -19.5t-46.5 19.5t-19.5 46.5zM335 646
q0 27 19.5 46.5t46.5 19.5t46.5 -19.5t19.5 -46.5t-19.5 -46.5t-46.5 -19.5t-46.5 19.5t-19.5 46.5z" />
    <glyph glyph-name="iacute" unicode="&#xed;" 
d="M80 506h100v-506h-100v506zM158 730h116q-5 -22 -19.5 -42.5t-36.5 -41.5l-67 -66h-84z" />
    <glyph glyph-name="igrave" unicode="&#xec;" 
d="M80 506h100v-506h-100v506zM194 580h-84l-67 66q-22 21 -36.5 41.5t-19.5 42.5h116z" />
    <glyph glyph-name="icircumflex" unicode="&#xee;" 
d="M80 506h100v-506h-100v506zM-27 580l124 150h66l124 -150h-92l-65 64l-65 -64h-92z" />
    <glyph glyph-name="idieresis" unicode="&#xef;" 
d="M80 506h100v-506h-100v506zM-47 646q0 27 19.5 46.5t46.5 19.5t46.5 -19.5t19.5 -46.5t-19.5 -46.5t-46.5 -19.5t-46.5 19.5t-19.5 46.5zM175 646q0 27 19.5 46.5t46.5 19.5t46.5 -19.5t19.5 -46.5t-19.5 -46.5t-46.5 -19.5t-46.5 19.5t-19.5 46.5z" />
    <glyph glyph-name="ntilde" unicode="&#xf1;" horiz-adv-x="593" 
d="M80 506h14q36 0 54.5 -16.5t23.5 -42.5q31 33 72 52.5t89 19.5q45 0 79.5 -16t58 -45t35.5 -68.5t12 -85.5v-304h-100v289q0 62 -28.5 96t-81.5 34q-27 0 -50 -10t-40.5 -28.5t-27.5 -45t-10 -58.5v-277h-100v506zM102 633q32 35 61.5 55t63.5 20q23 0 40 -4.5
t32.5 -10.5t31.5 -10.5t39 -4.5q24 0 45.5 9t44.5 26l31 -50q-32 -35 -61.5 -55t-63.5 -20q-23 0 -40 4.5t-32.5 10.5t-32 10.5t-38.5 4.5q-24 0 -45.5 -9t-44.5 -26z" />
    <glyph glyph-name="oacute" unicode="&#xf3;" horiz-adv-x="574" 
d="M287 -13q-57 0 -101 20.5t-74.5 56.5t-46 84.5t-15.5 104.5t15.5 104.5t46 84.5t74.5 56.5t101 20.5t101 -20.5t74.5 -56.5t46 -84.5t15.5 -104.5t-15.5 -104.5t-46 -84.5t-74.5 -56.5t-101 -20.5zM287 424q-61 0 -96.5 -44.5t-35.5 -126.5t35.5 -126.5t96.5 -44.5
t96.5 44.5t35.5 126.5t-35.5 126.5t-96.5 44.5zM314 730h116q-5 -22 -19.5 -42.5t-36.5 -41.5l-67 -66h-84z" />
    <glyph glyph-name="ograve" unicode="&#xf2;" horiz-adv-x="574" 
d="M287 -13q-57 0 -101 20.5t-74.5 56.5t-46 84.5t-15.5 104.5t15.5 104.5t46 84.5t74.5 56.5t101 20.5t101 -20.5t74.5 -56.5t46 -84.5t15.5 -104.5t-15.5 -104.5t-46 -84.5t-74.5 -56.5t-101 -20.5zM287 424q-61 0 -96.5 -44.5t-35.5 -126.5t35.5 -126.5t96.5 -44.5
t96.5 44.5t35.5 126.5t-35.5 126.5t-96.5 44.5zM350 580h-84l-67 66q-22 21 -36.5 41.5t-19.5 42.5h116z" />
    <glyph glyph-name="ocircumflex" unicode="&#xf4;" horiz-adv-x="574" 
d="M287 -13q-57 0 -101 20.5t-74.5 56.5t-46 84.5t-15.5 104.5t15.5 104.5t46 84.5t74.5 56.5t101 20.5t101 -20.5t74.5 -56.5t46 -84.5t15.5 -104.5t-15.5 -104.5t-46 -84.5t-74.5 -56.5t-101 -20.5zM287 424q-61 0 -96.5 -44.5t-35.5 -126.5t35.5 -126.5t96.5 -44.5
t96.5 44.5t35.5 126.5t-35.5 126.5t-96.5 44.5zM130 580l124 150h66l124 -150h-92l-65 64l-65 -64h-92z" />
    <glyph glyph-name="odieresis" unicode="&#xf6;" horiz-adv-x="574" 
d="M287 -13q-57 0 -101 20.5t-74.5 56.5t-46 84.5t-15.5 104.5t15.5 104.5t46 84.5t74.5 56.5t101 20.5t101 -20.5t74.5 -56.5t46 -84.5t15.5 -104.5t-15.5 -104.5t-46 -84.5t-74.5 -56.5t-101 -20.5zM287 424q-61 0 -96.5 -44.5t-35.5 -126.5t35.5 -126.5t96.5 -44.5
t96.5 44.5t35.5 126.5t-35.5 126.5t-96.5 44.5zM110 646q0 27 19.5 46.5t46.5 19.5t46.5 -19.5t19.5 -46.5t-19.5 -46.5t-46.5 -19.5t-46.5 19.5t-19.5 46.5zM332 646q0 27 19.5 46.5t46.5 19.5t46.5 -19.5t19.5 -46.5t-19.5 -46.5t-46.5 -19.5t-46.5 19.5t-19.5 46.5z" />
    <glyph glyph-name="otilde" unicode="&#xf5;" horiz-adv-x="574" 
d="M287 -13q-57 0 -101 20.5t-74.5 56.5t-46 84.5t-15.5 104.5t15.5 104.5t46 84.5t74.5 56.5t101 20.5t101 -20.5t74.5 -56.5t46 -84.5t15.5 -104.5t-15.5 -104.5t-46 -84.5t-74.5 -56.5t-101 -20.5zM287 424q-61 0 -96.5 -44.5t-35.5 -126.5t35.5 -126.5t96.5 -44.5
t96.5 44.5t35.5 126.5t-35.5 126.5t-96.5 44.5zM92 633q32 35 61.5 55t63.5 20q23 0 40 -4.5t32.5 -10.5t31.5 -10.5t39 -4.5q24 0 45.5 9t44.5 26l31 -50q-32 -35 -61.5 -55t-63.5 -20q-23 0 -40 4.5t-32.5 10.5t-32 10.5t-38.5 4.5q-24 0 -45.5 -9t-44.5 -26z" />
    <glyph glyph-name="uacute" unicode="&#xfa;" horiz-adv-x="593" 
d="M499 0q-36 0 -54.5 16.5t-23.5 42.5q-31 -33 -72 -52.5t-89 -19.5q-45 0 -79.5 16t-58 45t-35.5 68t-12 86v304h100v-289q0 -62 28.5 -96t81.5 -34q27 0 50 10t40.5 28.5t27.5 45t10 58.5v277h100v-506h-14zM324 730h116q-5 -22 -19.5 -42.5t-36.5 -41.5l-67 -66h-84z
" />
    <glyph glyph-name="ugrave" unicode="&#xf9;" horiz-adv-x="593" 
d="M499 0q-36 0 -54.5 16.5t-23.5 42.5q-31 -33 -72 -52.5t-89 -19.5q-45 0 -79.5 16t-58 45t-35.5 68t-12 86v304h100v-289q0 -62 28.5 -96t81.5 -34q27 0 50 10t40.5 28.5t27.5 45t10 58.5v277h100v-506h-14zM360 580h-84l-67 66q-22 21 -36.5 41.5t-19.5 42.5h116z" />
    <glyph glyph-name="ucircumflex" unicode="&#xfb;" horiz-adv-x="593" 
d="M499 0q-36 0 -54.5 16.5t-23.5 42.5q-31 -33 -72 -52.5t-89 -19.5q-45 0 -79.5 16t-58 45t-35.5 68t-12 86v304h100v-289q0 -62 28.5 -96t81.5 -34q27 0 50 10t40.5 28.5t27.5 45t10 58.5v277h100v-506h-14zM139 580l124 150h66l124 -150h-92l-65 64l-65 -64h-92z" />
    <glyph glyph-name="udieresis" unicode="&#xfc;" horiz-adv-x="593" 
d="M499 0q-36 0 -54.5 16.5t-23.5 42.5q-31 -33 -72 -52.5t-89 -19.5q-45 0 -79.5 16t-58 45t-35.5 68t-12 86v304h100v-289q0 -62 28.5 -96t81.5 -34q27 0 50 10t40.5 28.5t27.5 45t10 58.5v277h100v-506h-14zM119 646q0 27 19.5 46.5t46.5 19.5t46.5 -19.5t19.5 -46.5
t-19.5 -46.5t-46.5 -19.5t-46.5 19.5t-19.5 46.5zM341 646q0 27 19.5 46.5t46.5 19.5t46.5 -19.5t19.5 -46.5t-19.5 -46.5t-46.5 -19.5t-46.5 19.5t-19.5 46.5z" />
    <glyph glyph-name="Ocircumflex" unicode="&#xd4;" horiz-adv-x="662" 
d="M331 -13q-69 0 -122 27t-88 75.5t-53 115.5t-18 147t18 147.5t53 116t88 75.5t122 27t122 -27t88 -75.5t53 -116t18 -147.5t-18 -147t-53 -115.5t-88 -75.5t-122 -27zM331 87q80 0 125.5 67.5t45.5 197.5t-45.5 198t-125.5 68t-125.5 -68t-45.5 -198t45.5 -197.5
t125.5 -67.5zM174 779l124 150h66l124 -150h-92l-65 64l-65 -64h-92z" />
    <glyph glyph-name="Oacute" unicode="&#xd3;" horiz-adv-x="662" 
d="M331 -13q-69 0 -122 27t-88 75.5t-53 115.5t-18 147t18 147.5t53 116t88 75.5t122 27t122 -27t88 -75.5t53 -116t18 -147.5t-18 -147t-53 -115.5t-88 -75.5t-122 -27zM331 87q80 0 125.5 67.5t45.5 197.5t-45.5 198t-125.5 68t-125.5 -68t-45.5 -198t45.5 -197.5
t125.5 -67.5zM358 929h116q-5 -22 -19.5 -42.5t-36.5 -41.5l-67 -66h-84z" />
    <glyph glyph-name="Igrave" unicode="&#xcc;" horiz-adv-x="275" 
d="M85 705h105v-705h-105v705zM201 779h-84l-67 66q-22 21 -36.5 41.5t-19.5 42.5h116z" />
    <glyph glyph-name="Idieresis" unicode="&#xcf;" horiz-adv-x="275" 
d="M85 705h105v-705h-105v705zM-39 845q0 27 19.5 46.5t46.5 19.5t46.5 -19.5t19.5 -46.5t-19.5 -46.5t-46.5 -19.5t-46.5 19.5t-19.5 46.5zM183 845q0 27 19.5 46.5t46.5 19.5t46.5 -19.5t19.5 -46.5t-19.5 -46.5t-46.5 -19.5t-46.5 19.5t-19.5 46.5z" />
    <glyph glyph-name="Icircumflex" unicode="&#xce;" horiz-adv-x="275" 
d="M85 705h105v-705h-105v705zM-19 779l124 150h66l124 -150h-92l-65 64l-65 -64h-92z" />
    <glyph glyph-name="Iacute" unicode="&#xcd;" horiz-adv-x="275" 
d="M85 705h105v-705h-105v705zM165 929h116q-5 -22 -19.5 -42.5t-36.5 -41.5l-67 -66h-84z" />
    <glyph glyph-name="Egrave" unicode="&#xc8;" horiz-adv-x="531" 
d="M85 705h386v-18q0 -44 -15.5 -63t-35.5 -19h-230v-184h223v-100h-223v-221h240q20 0 35.5 -19.5t15.5 -63.5v-17h-396v705zM329 779h-84l-67 66q-22 21 -36.5 41.5t-19.5 42.5h116z" />
    <glyph glyph-name="Edieresis" unicode="&#xcb;" horiz-adv-x="531" 
d="M85 705h386v-18q0 -44 -15.5 -63t-35.5 -19h-230v-184h223v-100h-223v-221h240q20 0 35.5 -19.5t15.5 -63.5v-17h-396v705zM88 845q0 27 19.5 46.5t46.5 19.5t46.5 -19.5t19.5 -46.5t-19.5 -46.5t-46.5 -19.5t-46.5 19.5t-19.5 46.5zM310 845q0 27 19.5 46.5t46.5 19.5
t46.5 -19.5t19.5 -46.5t-19.5 -46.5t-46.5 -19.5t-46.5 19.5t-19.5 46.5z" />
    <glyph glyph-name="Aacute" unicode="&#xc1;" horiz-adv-x="592" 
d="M240 705h111l221 -705h-112l-42 134h-248l-41 -134h-109zM201 234h187l-92 319zM323 929h116q-5 -22 -19.5 -42.5t-36.5 -41.5l-67 -66h-84z" />
    <glyph glyph-name="Ecircumflex" unicode="&#xca;" horiz-adv-x="531" 
d="M85 705h386v-18q0 -44 -15.5 -63t-35.5 -19h-230v-184h223v-100h-223v-221h240q20 0 35.5 -19.5t15.5 -63.5v-17h-396v705zM108 779l124 150h66l124 -150h-92l-65 64l-65 -64h-92z" />
    <glyph glyph-name="Acircumflex" unicode="&#xc2;" horiz-adv-x="592" 
d="M240 705h111l221 -705h-112l-42 134h-248l-41 -134h-109zM201 234h187l-92 319zM139 779l124 150h66l124 -150h-92l-65 64l-65 -64h-92z" />
    <glyph glyph-name="Agrave" unicode="&#xc0;" horiz-adv-x="592" 
d="M240 705h111l221 -705h-112l-42 134h-248l-41 -134h-109zM201 234h187l-92 319zM359 779h-84l-67 66q-22 21 -36.5 41.5t-19.5 42.5h116z" />
    <glyph glyph-name="Atilde" unicode="&#xc3;" horiz-adv-x="592" 
d="M240 705h111l221 -705h-112l-42 134h-248l-41 -134h-109zM101 832q32 35 61.5 55t63.5 20q23 0 40 -4.5t32.5 -10.5t31.5 -10.5t39 -4.5q24 0 45.5 9t44.5 26l31 -50q-32 -35 -61.5 -55t-63.5 -20q-23 0 -40 4.5t-32.5 10.5t-32 10.5t-38.5 4.5q-24 0 -45.5 -9t-44.5 -26
zM201 234h187l-92 319z" />
    <glyph glyph-name="Otilde" unicode="&#xd5;" horiz-adv-x="662" 
d="M331 -13q-69 0 -122 27t-88 75.5t-53 115.5t-18 147t18 147.5t53 116t88 75.5t122 27t122 -27t88 -75.5t53 -116t18 -147.5t-18 -147t-53 -115.5t-88 -75.5t-122 -27zM331 87q80 0 125.5 67.5t45.5 197.5t-45.5 198t-125.5 68t-125.5 -68t-45.5 -198t45.5 -197.5
t125.5 -67.5zM136 832q32 35 61.5 55t63.5 20q23 0 40 -4.5t32.5 -10.5t31.5 -10.5t39 -4.5q24 0 45.5 9t44.5 26l31 -50q-32 -35 -61.5 -55t-63.5 -20q-23 0 -40 4.5t-32.5 10.5t-32 10.5t-38.5 4.5q-24 0 -45.5 -9t-44.5 -26z" />
    <glyph glyph-name="Ugrave" unicode="&#xd9;" horiz-adv-x="664" 
d="M332 -13q-60 0 -106 18.5t-77.5 51t-47.5 75t-16 90.5v483h105v-476q0 -30 8.5 -56t25.5 -45t44 -30t64 -11t64 11t44 30t25.5 45t8.5 56v476h105v-483q0 -48 -16 -90.5t-47.5 -75t-77.5 -51t-106 -18.5zM395 779h-84l-67 66q-22 21 -36.5 41.5t-19.5 42.5h116z" />
    <glyph glyph-name="Ograve" unicode="&#xd2;" horiz-adv-x="662" 
d="M331 -13q-69 0 -122 27t-88 75.5t-53 115.5t-18 147t18 147.5t53 116t88 75.5t122 27t122 -27t88 -75.5t53 -116t18 -147.5t-18 -147t-53 -115.5t-88 -75.5t-122 -27zM331 87q80 0 125.5 67.5t45.5 197.5t-45.5 198t-125.5 68t-125.5 -68t-45.5 -198t45.5 -197.5
t125.5 -67.5zM394 779h-84l-67 66q-22 21 -36.5 41.5t-19.5 42.5h116z" />
    <glyph glyph-name="Uacute" unicode="&#xda;" horiz-adv-x="664" 
d="M332 -13q-60 0 -106 18.5t-77.5 51t-47.5 75t-16 90.5v483h105v-476q0 -30 8.5 -56t25.5 -45t44 -30t64 -11t64 11t44 30t25.5 45t8.5 56v476h105v-483q0 -48 -16 -90.5t-47.5 -75t-77.5 -51t-106 -18.5zM359 929h116q-5 -22 -19.5 -42.5t-36.5 -41.5l-67 -66h-84z" />
    <glyph glyph-name="Ucircumflex" unicode="&#xdb;" horiz-adv-x="664" 
d="M332 -13q-60 0 -106 18.5t-77.5 51t-47.5 75t-16 90.5v483h105v-476q0 -30 8.5 -56t25.5 -45t44 -30t64 -11t64 11t44 30t25.5 45t8.5 56v476h105v-483q0 -48 -16 -90.5t-47.5 -75t-77.5 -51t-106 -18.5zM175 779l124 150h66l124 -150h-92l-65 64l-65 -64h-92z" />
    <glyph glyph-name="ydieresis" unicode="&#xff;" horiz-adv-x="498" 
d="M267 -103q-20 -57 -51 -88.5t-88 -31.5q-22 0 -46 5t-44 13l5 19q17 64 47 64q8 0 16 -1t17 -1q22 0 32.5 14t16.5 31l26 73l-178 512h110l121 -367l118 367h109zM72 646q0 27 19.5 46.5t46.5 19.5t46.5 -19.5t19.5 -46.5t-19.5 -46.5t-46.5 -19.5t-46.5 19.5t-19.5 46.5
zM294 646q0 27 19.5 46.5t46.5 19.5t46.5 -19.5t19.5 -46.5t-19.5 -46.5t-46.5 -19.5t-46.5 19.5t-19.5 46.5z" />
    <glyph glyph-name="Ydieresis" unicode="&#x178;" horiz-adv-x="536" 
d="M214 300l-204 405h118l141 -293l141 293h116l-207 -405v-300h-105v300zM91 845q0 27 19.5 46.5t46.5 19.5t46.5 -19.5t19.5 -46.5t-19.5 -46.5t-46.5 -19.5t-46.5 19.5t-19.5 46.5zM313 845q0 27 19.5 46.5t46.5 19.5t46.5 -19.5t19.5 -46.5t-19.5 -46.5t-46.5 -19.5
t-46.5 19.5t-19.5 46.5z" />
    <glyph glyph-name="Lslash" unicode="&#x141;" horiz-adv-x="516" 
d="M105 254l-90 -52v114l90 52v337h105v-283l126 74v-114l-126 -74v-208h225q20 0 35.5 -19.5t15.5 -63.5v-17h-381v254z" />
    </font>
</defs>
</svg>
